<svg width="145" height="150" viewBox="0 0 145 150" fill="none" xmlns="http://www.w3.org/2000/svg">
<path d="M96.2824 44.4487C97.1865 45.3789 97.946 46.4267 98.9485 47.1264C100.636 48.3039 102.633 48.7557 104.676 48.9632C106.179 49.1159 106.202 49.2366 105.355 50.5408C102.134 55.5011 98.2465 59.8894 93.8263 63.7932C91.6953 65.6751 89.2904 67.2166 86.6069 68.2142C85.0154 68.8059 83.2936 68.7047 81.6606 68.4601C80.0789 68.2232 78.5505 67.6358 76.9948 67.2167C76.3584 67.0453 76.2123 66.7086 76.4172 66.077C76.8836 64.6395 77.2916 63.1831 77.7132 61.7314C77.7787 61.5059 77.7909 61.265 77.8278 61.0311C77.7595 61.0103 77.6913 60.9895 77.623 60.9686C76.8367 63.0957 76.0504 65.2228 75.2645 67.3487C74.5192 67.1073 74.4704 66.7306 74.7841 66.101C75.8581 63.9453 76.7811 60.5493 76.6569 58.9768C76.5957 59.1501 76.5371 59.3242 76.4729 59.4964C75.7746 61.3698 75.0864 63.2472 74.3678 65.1129C74.2112 65.5194 73.9678 65.9755 73.3947 65.6883C70.9747 64.4756 68.5184 63.3239 66.1747 61.9772C65.3564 61.5071 64.7966 60.5615 64.1761 59.787C63.9617 59.5194 63.8256 59.1152 63.816 58.7689C63.7062 54.8285 63.6279 50.8873 63.5375 46.7789C63.7783 46.9593 63.9651 47.0416 64.0663 47.1846C64.6594 48.0226 65.2103 48.8913 65.8215 49.7154C66.1382 50.1422 66.5015 50.5644 66.9262 50.8765C70.6172 53.5886 74.6151 54.2294 78.893 52.4774C80.4241 51.8504 81.9876 51.2127 83.3596 50.311C84.9239 49.2828 86.0172 47.731 86.8951 46.0621C88.9754 42.1073 89.4719 37.9574 88.1466 33.6944C87.0792 30.261 84.9193 27.5783 81.6442 26.0221C77.1682 23.8953 72.7096 24.3055 68.4315 26.6602C66.7 27.6133 65.6292 29.3093 64.4859 30.8523C63.0201 32.8307 62.3703 35.1724 61.9166 37.5655C61.8713 37.8044 61.8137 38.0419 61.7443 38.2748C61.719 38.3598 61.6429 38.4297 61.5294 38.5941C61.3012 37.9713 61.0651 37.4388 60.9091 36.8837C59.7648 32.8145 57.4108 29.4651 54.5285 26.4895C53.475 25.4019 52.052 24.677 50.8218 23.7543C49.493 22.7577 49.5809 23.1026 50.0728 21.4524C51.0822 18.0655 52.6465 14.947 54.9144 12.2475C56.7681 10.0411 58.6202 7.77917 61.1026 6.22282C62.606 5.28028 64.2225 4.51876 65.7843 3.66857C66.2503 3.41488 66.6553 3.53171 66.9691 3.89345C67.4628 4.46258 67.961 5.03805 68.3726 5.66635C70.2146 8.47832 71.2455 11.6368 72.2162 14.8184C72.3545 15.2713 72.5132 15.718 72.6624 16.1677C72.7271 16.1508 72.7917 16.1339 72.8563 16.1171C72.7019 15.3383 72.5743 14.5531 72.3882 13.782C71.673 10.8173 70.4816 8.03516 69.0228 5.37131C68.6049 4.60831 67.958 3.97392 67.4627 3.24871C67.2437 2.92804 66.5506 2.64602 67.1716 2.1283C67.5666 1.79896 68.4216 2.06206 68.6944 2.55323C69.3944 3.8133 70.1748 5.03919 70.7548 6.35301C71.6592 8.40151 72.4246 10.5114 73.2486 12.5953C73.3433 12.835 73.4364 13.0753 73.5302 13.3153C73.6102 13.2896 73.6903 13.2639 73.7704 13.2382C73.316 11.7053 72.9759 10.1261 72.3781 8.65128C71.6481 6.85014 70.6884 5.14297 69.8548 3.38251C69.4504 2.52853 69.5463 2.34143 70.4924 2.17095C75.5835 1.25367 80.7203 0.767143 85.8152 1.84834C87.9731 2.30628 89.9769 3.48257 92.0573 4.31613C94.1218 5.14334 95.0612 6.90423 95.7101 8.83555C96.5178 11.2394 97.201 13.685 97.9383 16.1124C97.9861 16.27 98.0366 16.4267 98.0858 16.5839C98.1522 16.5716 98.2186 16.5594 98.285 16.5471C98.0978 15.5298 97.9433 14.5051 97.7142 13.4974C97.4762 12.4504 97.2136 11.404 96.8741 10.3866C96.5353 9.3713 96.144 8.36465 95.6722 7.40517C95.2034 6.45188 94.6056 5.56202 93.9496 4.44968C94.3835 4.57293 94.7103 4.59644 94.9588 4.74825C96.1176 5.45618 96.6633 6.62086 97.0445 7.84067C97.6778 9.86735 98.2243 11.9211 98.81 13.9627C98.862 14.1438 98.9332 14.3193 99.1628 14.4633C98.8922 12.8564 98.6217 11.2495 98.3511 9.64257C98.4128 9.5897 98.4744 9.53683 98.5361 9.48396C99.0723 9.97719 99.6868 10.4088 100.132 10.9738C102.668 14.1951 104.858 17.6287 106.334 21.4789C106.644 22.2883 106.599 22.4182 105.796 22.6173C102.931 23.3274 100.455 24.7503 98.2831 26.7129C95.2557 29.449 93.6598 32.8285 93.7442 36.9604C93.8004 39.7135 94.7103 42.1628 96.2824 44.4487Z" fill="#6F7B87"/>
<path d="M83.8008 69.6813C86.404 69.6479 88.7514 69.0579 90.7896 67.4618C91.5781 66.8444 92.4186 66.2924 93.247 65.7276C93.4744 65.5726 93.7437 65.479 94.0364 65.3364C93.9788 67.4711 94.1406 67.5023 92.5282 68.1296C91.1406 68.6693 89.7499 69.2014 88.3567 69.7263C87.844 69.9195 87.4978 70.1796 87.4523 70.8073C87.2827 73.1469 87.0357 75.481 86.8817 77.8214C86.8223 78.7254 87.2617 79.1283 88.3707 79.4007C89.8651 79.7677 91.3598 80.1376 92.8655 80.4531C93.4984 80.5858 93.7665 80.9127 93.8274 81.5294C94.1083 84.3785 94.3803 87.2289 94.7133 90.072C94.8522 91.2587 95.1345 92.4286 95.3525 93.6059C95.3747 93.726 95.4113 93.8439 95.4276 93.9646C95.6134 95.3404 95.6071 95.3285 94.3518 95.9087C92.9616 96.5512 91.4913 97.0394 90.3627 98.1684C89.7365 98.7948 89.2049 99.4062 89.2227 100.365C89.2279 100.646 89.0365 101.156 88.8981 101.169C88.5828 101.199 88.1826 101.064 87.9255 100.859C86.0445 99.363 83.9588 98.8111 81.6079 99.4007C80.296 99.7297 79.3381 100.587 78.4412 101.544C78.2226 101.778 77.9129 101.964 77.6094 102.07C77.1901 102.216 76.8359 102.073 76.7025 101.597C76.2324 99.9191 74.9673 99.2832 73.3976 98.8763C71.4153 98.3624 69.4568 98.2262 67.4434 98.5988C65.799 98.9032 65.6185 98.7501 65.9182 97.094C66.5099 93.8244 67.1614 90.5652 67.8251 87.3092C68.1128 85.8981 68.4971 84.5069 68.8267 83.1041C68.9529 82.567 69.2067 82.1973 69.7744 82.0162C71.3504 81.5132 72.9151 80.9738 74.478 80.4305C75.1594 80.1937 75.535 79.6692 75.691 78.9792C76.1917 76.7635 76.6984 74.5491 77.1835 72.3299C77.2805 71.8861 77.2925 71.4236 77.3603 70.8231C75.8835 70.9459 74.5134 71.0599 72.9349 71.1912C73.2119 70.1687 73.4179 69.278 73.7225 68.4224C73.7687 68.2925 74.2894 68.2419 74.562 68.2967C76.4038 68.6668 78.227 69.142 80.0786 69.4472C81.2761 69.6446 82.5117 69.6113 83.8008 69.6813Z" fill="#6F7B87"/>
<path d="M86.618 111.778C87.7231 110.747 88.8171 109.778 89.8232 108.725C90.2502 108.279 90.5315 108.216 90.8234 108.739C92.1399 111.097 93.5306 110.99 95.8203 110.34C96.9931 110.006 98.1651 109.652 99.2998 109.21C100.006 108.935 100.448 109.048 100.808 109.699C101.375 110.721 101.914 111.765 102.561 112.736C103.511 114.16 103.728 114.194 105.361 113.653C106.033 113.43 106.695 113.164 107.383 113.009C107.656 112.947 108.128 113.032 108.267 113.225C109.517 114.968 110.714 116.75 111.927 118.521C111.874 118.593 111.822 118.665 111.769 118.737C111.501 118.653 111.237 118.532 110.962 118.493C110.506 118.429 109.964 118.247 109.598 118.416C108.652 118.853 107.772 119.438 106.887 119.998C106.33 120.351 105.818 120.775 105.275 121.151C103.931 122.081 103.824 122.341 104.192 123.947C104.438 125.019 104.695 126.089 104.943 127.161C105.094 127.812 104.939 128.268 104.229 128.506C102.448 129.104 101.931 128.873 100.485 127.263C98.7536 125.334 97.2115 123.232 95.4424 121.341C93.953 119.748 92.5836 117.973 90.5208 117.015C89.8481 116.703 89.1742 116.393 88.3444 116.01C89.0479 115.634 89.5931 115.343 90.1382 115.052C90.1336 115.003 90.129 114.954 90.1244 114.905C89.7854 114.905 89.4286 114.835 89.1103 114.916C87.3017 115.377 85.5931 116.071 84.0559 117.157C82.788 118.054 82.1862 119.397 81.6611 120.763C81.3594 121.548 80.9231 122.016 80.0864 122.039C78.0582 122.094 76.0126 122.313 74.0049 122.129C71.2624 121.878 68.5469 121.323 65.8252 120.867C65.6181 120.832 65.29 120.54 65.294 120.374C65.3467 118.173 65.4139 115.97 65.5544 113.773C65.6171 112.792 65.7282 112.753 66.6446 113.077C69.0837 113.939 71.5371 113.852 74.0141 113.279C75.1844 113.008 75.6188 112.067 75.9995 111.115C76.262 110.459 76.6146 110.057 77.3518 110.009C77.8515 109.977 78.1883 110.138 78.5772 110.472C79.4044 111.183 80.2976 111.833 81.2307 112.397C81.561 112.597 82.0907 112.529 82.5209 112.49C83.7035 112.382 84.8827 112.233 86.0601 112.076C86.2393 112.052 86.4013 111.899 86.618 111.778Z" fill="#6F7B87"/>
<path d="M11.7931 66.0005C10.8329 64.6551 9.90574 63.3504 8.92383 61.9686C10.4385 61.2359 12.0085 60.8878 12.6125 58.9805C13.5463 60.5506 14.3461 61.8952 15.1458 63.2398C15.2193 63.2031 15.2928 63.1665 15.3663 63.1298C14.6233 61.4627 13.8804 59.7956 13.0845 58.0099C15.2562 57.9103 17.0872 57.3694 18.5568 55.7698C19.9586 59.7421 20.5494 63.8501 21.9747 67.7027C22.0729 67.6761 22.1711 67.6496 22.2693 67.6231C21.3956 63.8957 20.5219 60.1684 19.6287 56.3578C21.7442 56.2612 23.7195 56.6074 25.6337 55.3778C25.4943 57.3388 25.3709 59.0751 25.2475 60.8114C25.3204 60.8222 25.3933 60.833 25.4661 60.8438C25.7525 58.9921 26.0388 57.1405 26.3361 55.2181C26.5503 55.3442 26.718 55.4018 26.8294 55.5149C27.9594 56.6621 29.3552 57.2222 30.9236 57.4601C31.7809 57.5901 31.8621 57.7837 31.4643 58.5703C30.3085 60.8559 29.1284 63.1292 27.973 65.4151C27.7154 65.9246 27.5199 66.4655 27.3998 67.0431C29.4534 64.142 30.7602 60.8172 32.6577 57.7678C32.9543 58.0821 33.2001 58.3152 33.4139 58.5745C34.0358 59.3288 34.7929 59.8645 35.7271 60.1826C36.4074 60.4143 36.4745 60.6643 35.9483 61.1549C34.9127 62.1202 33.8899 63.1214 32.7422 63.9402C29.9465 65.9349 27.7044 68.4029 26.0014 71.3711C25.486 72.2694 25.6468 72.6185 26.5834 73.068C27.9305 73.7145 29.375 73.7252 30.8135 73.814C31.5456 73.8592 32.284 73.8847 33.0028 74.0128C33.2087 74.0495 33.3561 74.4139 33.5303 74.628C33.2847 74.6594 33.0186 74.7658 32.7979 74.7057C32.39 74.5946 32.0086 74.3858 31.6162 74.2177C31.5799 74.2773 31.5437 74.337 31.5074 74.3966C31.866 74.6961 32.2247 74.9955 32.6509 75.3514C31.8584 76.0877 31.069 76.8212 30.1939 77.6341C29.8319 77.3361 29.3359 76.9279 28.84 76.5197C28.7887 76.5599 28.7374 76.6002 28.6861 76.6404C29.1262 77.2326 29.5663 77.8248 30.1443 78.6025C28.693 78.7172 27.3689 78.7992 26.6246 80.1078C25.3701 78.9978 25.2054 77.4093 24.4889 76.1373C24.3889 76.1772 24.2888 76.2172 24.1887 76.2571C24.6323 77.7037 25.0758 79.1502 25.551 80.6998C24.1966 80.4472 22.971 80.9018 21.7213 81.2872C21.1825 81.4533 21.2364 80.9505 21.2529 80.6241C21.3036 79.614 21.3771 78.605 21.4417 77.5955C21.3621 77.5833 21.2826 77.5712 21.203 77.559C20.9903 78.7991 20.7776 80.0393 20.5885 81.1419C19.3251 80.7475 18.1268 80.3667 16.9239 80.0012C16.4075 79.8442 16.3268 79.5146 16.5898 78.8374C17.2243 77.204 18.3031 75.89 19.5205 74.6702C19.7282 74.4621 19.9361 74.254 20.144 74.046C21.2909 72.8988 21.3284 72.3386 19.9846 71.3478C18.8154 70.4857 17.5218 69.7677 16.2162 69.1215C14.5855 68.3144 12.9601 67.5397 11.7931 66.0005ZM28.7009 76.4288C28.6137 76.4224 28.5266 76.416 28.4394 76.4096C28.5047 76.4512 28.57 76.4928 28.7009 76.4288Z" fill="#6F7B87"/>
<path d="M26.9252 91.6633C27.2879 91.1336 27.6847 91.4935 28.0274 91.601C28.9358 91.8858 29.809 92.2883 30.7238 92.5462C31.9171 92.8827 33.142 93.106 34.3426 93.419C34.7232 93.5183 35.0696 93.7489 35.4042 93.9064C37.1757 93.155 39.0507 92.3597 41.0368 91.5173C41.0368 92.2746 41.0368 92.9094 41.0368 93.5443C41.0834 93.5583 41.13 93.5723 41.1765 93.5862C41.3314 93.3617 41.4862 93.1371 41.7095 92.8132C43.0515 94.0242 44.6108 94.5171 46.5228 93.9164C46.1129 95.6905 45.7463 97.3107 44.8083 98.6933C44.3669 99.344 43.6629 99.7768 42.7665 99.3821C42.5739 99.2973 42.3525 99.278 41.9638 99.1856C42.6022 100.469 43.7427 99.7303 44.56 100.125C44.4007 100.99 44.2261 101.871 44.0793 102.756C43.9676 103.43 43.8669 104.108 43.8049 104.788C43.7095 105.834 43.5729 105.983 42.501 106.019C42.2326 106.028 41.9636 106.02 41.6888 106.02C41.7742 106.616 41.7742 106.616 43.5506 106.843C43.5506 108.136 43.5525 109.451 43.5463 110.766C43.5459 110.854 43.4978 110.95 43.4487 111.027C43.0639 111.635 41.5915 112.324 41.0314 112.164C40.1187 111.904 39.4597 111.005 39.4106 109.952C39.3916 109.543 39.3737 109.134 39.3553 108.725C39.2882 108.721 39.221 108.716 39.1538 108.712C39.1404 108.993 39.1229 109.274 39.114 109.556C39.0459 111.703 37.5822 112.717 35.565 111.975C35.1217 111.812 34.6973 111.536 34.3349 111.228C33.7247 110.711 33.4164 110.059 33.5853 109.208C33.6931 108.665 33.6734 108.097 33.7109 107.54C33.626 107.521 33.5411 107.503 33.4562 107.484C33.3442 107.967 33.2434 108.454 33.1171 108.934C32.9949 109.398 32.9188 109.897 32.6845 110.3C32.5239 110.577 32.1269 110.887 31.8362 110.886C30.9169 110.884 29.983 110.817 29.0831 110.635C28.1749 110.451 27.6703 109.832 27.7128 108.842C27.7285 108.477 27.6748 108.11 27.5423 107.696C27.4625 107.868 27.3436 108.033 27.3091 108.214C27.0985 109.32 26.3009 109.79 25.3185 109.989C24.2262 110.212 23.519 109.494 22.8978 108.77C22.7032 108.543 22.6888 108.067 22.7497 107.734C22.9164 106.823 23.1596 105.924 23.3876 105.025C23.4963 104.596 23.6944 104.371 24.2278 104.519C24.795 104.675 25.4193 104.72 25.6298 103.847C25.454 103.86 25.316 103.855 25.1848 103.882C24.1075 104.107 23.6503 103.712 23.8496 102.665C24.0597 101.561 24.3247 100.468 24.5649 99.3701C24.6719 98.8808 24.907 98.6065 25.4741 98.6888C25.8573 98.7445 26.2653 98.7411 26.645 98.671C26.9004 98.6238 27.1257 98.414 27.3645 98.2769C27.3369 98.2129 27.3092 98.1489 27.2816 98.0849C26.8322 98.0849 26.3783 98.1244 25.935 98.0727C25.5679 98.0299 25.1737 97.8847 25.2881 97.3814C25.626 95.8946 25.9877 94.4131 26.3734 92.7896C27.6027 93.5179 28.6998 94.1056 29.9136 93.3681C29.9176 93.2829 29.9216 93.1976 29.9255 93.1124C29.6746 93.1124 29.4205 93.0871 29.1732 93.1172C28.492 93.2003 27.2696 92.6491 26.9571 92.0798C26.9038 91.9826 26.9317 91.8408 26.9252 91.6633ZM30.1595 101.63C30.1595 101.63 30.2019 101.673 30.1884 101.788C30.0958 102.142 29.9349 102.495 29.9264 102.851C29.9133 103.401 29.9379 103.972 30.0843 104.495C30.1435 104.706 30.6294 104.993 30.8068 104.929C31.0415 104.844 31.2525 104.467 31.3132 104.182C31.3981 103.783 31.3236 103.353 31.3376 102.937C31.3557 102.396 31.6529 102.072 32.2284 101.864C32.4751 103.167 32.7108 104.41 32.9447 105.645C34.1977 105.59 34.1994 105.59 34.6958 104.479C34.8847 104.056 35.0444 103.619 35.2538 103.207C35.422 102.875 35.3542 102.277 35.9814 102.388C36.6627 102.509 36.3729 103.083 36.3808 103.465C36.3931 104.06 36.3059 104.657 36.2611 105.25C37.5248 105.356 37.596 105.3 37.6998 104.167C37.7542 103.574 37.8077 102.981 37.8673 102.324C38.7318 102.515 38.8654 103.129 38.843 103.689C38.8091 104.534 38.6261 105.374 38.498 106.215C38.3962 106.882 38.6092 107.122 39.2332 106.895C39.5212 106.791 39.8867 106.473 39.931 106.205C40.0575 105.439 40.01 104.647 40.0801 103.87C40.2327 102.179 39.458 101.633 38.1126 101.454C37.7993 101.413 37.4905 101.327 37.1842 101.245C36.9066 101.17 36.6352 101.073 36.3611 100.986C36.3683 100.915 36.3756 100.844 36.3828 100.773C37.2747 100.709 38.1665 100.643 39.0585 100.581C40.0139 100.514 40.7778 100.05 40.8485 99.3501C40.9564 98.2824 41.0539 97.1943 40.9495 96.1352C40.9145 95.7806 40.244 95.2233 39.872 95.2296C39.3152 95.2389 39.4188 95.8462 39.5648 96.2841C39.8349 97.094 39.9024 97.8986 39.6193 98.7288C39.3402 99.5475 38.9879 99.7799 38.0913 99.6415C38.4444 97.6189 38.297 97.0557 37.2501 96.8066C37.1178 97.5612 36.9861 98.3124 36.8468 99.1071C36.317 99.1071 35.8385 99.1071 35.3626 99.1071C35.3626 98.7341 35.3626 98.3783 35.3626 98.0251C34.7497 97.9778 34.1645 97.9326 33.4362 97.8764C33.3426 98.1526 33.1988 98.5767 33.055 99.0006C32.078 98.8512 31.9394 98.6562 32.1503 97.7373C32.1886 97.5704 32.2064 97.3981 32.2537 97.234C32.3705 96.828 32.4272 96.4021 31.9082 96.2884C31.4222 96.182 31.1577 96.4936 31.0373 96.9648C30.9105 97.4606 30.7537 97.9512 30.5703 98.4287C30.5044 98.6003 30.3227 98.7273 30.1938 98.8746C30.1213 98.6881 30.0073 98.5069 29.9834 98.3144C29.8593 97.3134 30.1273 96.3887 30.5124 95.471C30.6776 95.0772 30.6744 94.6126 30.7452 94.1952C30.0051 93.9982 29.6116 94.2833 29.3906 94.7559C29.1135 95.3481 28.7475 95.9737 28.7244 96.5961C28.6415 98.8366 28.2979 99.1662 30.619 99.8377C30.9182 99.9243 31.2013 100.067 31.4918 100.183C31.4785 100.251 31.4653 100.319 31.452 100.386C30.8083 100.444 30.1643 100.498 29.521 100.559C28.4438 100.662 27.6269 101.118 27.4756 102.279C27.3435 103.293 27.2868 104.317 27.241 105.339C27.2298 105.589 27.3182 105.928 27.49 106.082C27.7531 106.318 28.1283 106.429 28.4559 106.593C28.5869 106.305 28.815 106.021 28.8303 105.726C28.8736 104.897 28.7839 104.061 28.8322 103.232C28.8813 102.391 29.4333 101.751 30.1595 101.63Z" fill="#6F7B87"/>
<path d="M123.071 47.3893C122.434 42.9424 121.796 38.5601 121.186 34.1738C120.998 32.8162 120.876 31.4487 120.75 30.0833C120.639 28.8856 121.222 27.7777 122.398 27.5095C126.525 26.5677 130.668 25.6664 134.955 25.9764C135.555 26.0198 135.894 26.2689 136.064 26.8402C136.286 27.5876 136.542 28.3254 136.804 29.0601C136.995 29.5961 136.792 29.8816 136.284 30.0541C134.944 30.5087 133.63 31.0578 132.264 31.4117C131.672 31.5652 130.979 31.3319 130.174 31.2603C130.327 32.3595 130.483 33.3881 130.609 34.4205C130.915 36.943 131.149 39.4762 131.528 41.9875C131.749 43.4543 132.187 44.889 132.542 46.3347C132.674 46.8721 133.004 46.9812 133.467 46.6837C133.918 46.3937 134.355 46.0786 134.82 45.814C135.268 45.5596 135.745 45.3557 136.209 45.1296C136.264 45.1922 136.319 45.2547 136.373 45.3173C136.228 45.6079 136.097 45.9072 135.934 46.1874C135.37 47.1526 135.044 48.1765 134.965 49.3031C134.926 49.8591 135.103 50.2133 135.482 50.5723C135.953 51.0182 136.371 51.5201 136.983 52.1827C135.871 52.5276 134.987 52.8389 134.084 53.0748C131.789 53.6737 129.479 54.2124 127.19 54.8267C125.717 55.2216 124.486 54.2585 124.258 53.0488C123.905 51.1758 123.476 49.3171 123.071 47.3893ZM127.023 32.0715C125.659 32.9615 124.578 34.1219 123.98 35.6367C123.049 37.9966 123.088 40.394 124.164 42.6913C125.318 45.1538 127.069 46.9465 129.954 47.2842C131.067 47.4144 131.404 47.1387 131.321 46.0423C131.306 45.8479 131.269 45.6546 131.232 45.4627C130.807 43.2542 130.336 41.0534 129.968 38.8354C129.645 36.884 129.48 34.9067 129.166 32.9533C128.915 31.3828 128.506 31.2305 127.023 32.0715Z" fill="#6F7B87"/>
<path d="M121.11 55.5082C121.92 55.9781 122.695 56.4064 123.571 56.8902C123.449 57.0153 123.293 57.2441 123.078 57.3822C121.436 58.44 119.733 59.411 118.142 60.5401C114.858 62.8708 111.423 64.9994 108.403 67.6929C107.658 68.3574 107.476 68.3328 107.067 67.4382C106.779 66.8077 106.549 66.1065 106.497 65.4213C106.401 64.1548 106.439 62.8767 106.45 61.6037C106.459 60.5271 107.024 59.6003 107.893 59.193C109.614 58.3867 110.034 56.9776 110.292 55.3175C110.712 52.6152 110.755 52.6203 113.102 51.2224C114.78 50.2232 116.46 49.2284 118.141 48.2344C118.347 48.1127 118.563 48.0085 118.908 47.825C119.134 49.0751 119.345 50.2363 119.554 51.3976C119.814 52.8465 120.136 54.2723 121.11 55.5082Z" fill="#6F7B87"/>
<path d="M68.6113 126.56C72.1378 126.839 75.6006 127.115 79.066 127.353C79.6366 127.392 79.8585 127.57 79.7853 128.145C79.6433 129.26 79.5185 130.378 79.4068 131.497C79.2198 133.37 79.045 135.245 78.8729 137.12C78.8225 137.67 77.8213 138.901 77.2918 138.921C77.0783 138.929 76.7289 138.692 76.6546 138.488C76.22 137.298 75.8508 136.085 75.455 134.881C75.3105 134.441 75.1536 134.005 75.0397 133.676C72.764 133.676 70.5628 133.62 68.3663 133.697C67.0916 133.742 66.6365 134.24 66.3547 135.528C66.1199 136.602 65.9323 137.685 65.7139 138.763C65.647 139.093 65.5476 139.416 65.4664 139.73C64.4291 139.661 64.0891 139.362 63.823 138.439C62.8405 135.035 62.5758 131.521 62.2092 128.022C62.1207 127.178 62.0736 126.329 61.9912 125.275C64.2712 125.716 66.4098 126.129 68.6113 126.56Z" fill="#6F7B87"/>
<path d="M143.082 44.0219C143.1 44.7244 143.306 45.4685 143.057 45.9967C142.425 47.3318 141.646 48.6089 140.814 49.8331C140.238 50.6817 139.524 50.8522 138.631 50.4059C137.936 50.0584 137.214 49.6119 136.735 49.0217C136.029 48.1514 136.18 47.3986 136.851 46.4458C137.495 45.5313 138.086 44.5796 138.7 43.6442C138.665 43.5894 138.63 43.5347 138.595 43.4799C137.77 43.7213 136.94 43.9444 136.123 44.2084C134.754 44.6506 134.437 44.5102 133.849 43.2278C133.322 42.0779 133.289 40.897 133.688 39.7342C133.831 39.3176 134.242 38.9749 134.58 38.6497C134.798 38.4406 135.105 38.3249 135.44 38.1275C135.222 38.0458 135.092 37.9706 134.954 37.9494C133.585 37.7397 133.071 37.1663 133.096 35.7615C133.111 34.8367 133.136 33.9022 133.289 32.9943C133.35 32.6318 133.699 32.1813 134.035 32.0251C135.482 31.3522 137.004 30.9507 138.629 30.9736C139.566 30.9868 140.196 31.3948 140.631 32.1894C141.339 33.4815 141.225 34.758 140.228 35.8061C141.315 36.4464 141.973 37.3883 142.209 38.629C142.448 39.8822 142.098 40.9398 141.145 41.9045C142.096 42.3614 142.765 43.0035 143.082 44.0219Z" fill="#6F7B87"/>
<path d="M33.3709 30.7259C33.1217 31.1798 32.8308 31.5608 32.6746 31.9908C32.117 33.5252 30.9331 34.3714 29.4958 34.9101C26.3958 36.072 23.3387 36.1191 20.3916 34.4083C19.5418 33.915 19.4175 33.6248 19.7545 32.7357C21.1058 29.1708 22.6812 25.7169 24.9145 22.4448C25.3626 22.7725 25.7745 23.0443 26.1539 23.3558C28.7447 25.4831 31.6927 25.9949 34.9069 25.3044C35.1658 25.2488 35.409 25.1227 35.6622 25.0372C35.9038 24.9556 36.149 24.8844 36.3925 24.8086C36.4444 24.8574 36.4963 24.9063 36.5482 24.9551C35.4958 26.8619 34.4434 28.7687 33.3709 30.7259Z" fill="#6F7B87"/>
<path d="M43.4474 29.9416C45.0918 30.8218 46.8358 30.9971 48.6718 31.0487C48.5818 31.2444 48.5404 31.41 48.4442 31.5327C46.6225 33.8603 44.804 36.1906 42.9542 38.4956C42.7396 38.763 42.326 39.0709 42.0338 39.044C39.5986 38.8199 37.1412 38.5703 35.01 37.2322C34.161 36.6992 33.4553 35.9326 32.7049 35.2499C32.1961 34.7869 32.2066 34.2375 32.521 33.6553C33.9118 31.0794 35.291 28.4974 36.6861 25.924C37.0284 25.2926 37.4152 24.6853 37.8985 23.8694C39.2455 26.5406 40.9323 28.5983 43.4474 29.9416Z" fill="#6F7B87"/>
<path d="M22.277 35.8521C25.2588 36.1833 28.1635 36.2797 30.9657 35.0373C30.9911 35.1012 31.0165 35.1651 31.0419 35.229C30.5897 36.2967 30.0921 37.3479 29.6952 38.4358C28.9779 40.4021 28.2989 42.3834 27.6528 44.3742C27.4736 44.9263 27.2039 45.3148 26.693 45.5778C25.0545 46.4216 23.3225 46.9746 21.4823 46.7407C20.4685 46.6119 19.481 46.1752 18.5228 45.7779C18.2737 45.6747 18.0494 45.205 18.0338 44.8926C17.874 41.6972 18.3089 38.5548 18.9078 35.4236C19.0496 34.6827 19.39 34.692 19.9171 34.902C20.6861 35.2082 21.4505 35.526 22.277 35.8521Z" fill="#6F7B87"/>
<path d="M31.3779 35.8013C31.4975 35.6124 31.5868 35.4676 31.7838 35.1484C34.2791 38.5266 37.9916 39.2001 41.8727 39.6997C41.7241 40.0821 41.6654 40.3393 41.5348 40.5525C40.1066 42.8837 38.6594 45.2034 37.2372 47.5382C36.9468 48.0148 36.578 48.3386 36.023 48.3458C34.1936 48.3695 32.3719 48.4493 30.6092 47.7075C29.6239 47.2929 28.9065 46.6318 28.3818 45.788C28.1656 45.4403 28.2118 44.8169 28.3457 44.3827C29.042 42.1256 29.7917 39.8846 30.5534 37.6484C30.7644 37.0291 31.08 36.4455 31.3779 35.8013Z" fill="#6F7B87"/>
<path d="M13.9112 36.7311C12.4639 37.1462 11.0622 37.1606 9.64808 36.8913C9.19652 36.8054 8.95252 36.5375 8.93657 36.0989C8.85403 33.8289 8.97231 31.5489 10.0617 29.5261C10.6862 28.3667 11.7154 27.4212 12.5961 26.4088C12.7167 26.2701 13.057 26.2145 13.2557 26.2681C16.2779 27.0835 19.1087 26.6788 21.7549 24.9993C21.8284 24.9526 21.9282 24.9472 22.1979 24.8712C21.9312 25.5044 21.7168 26.0084 21.5063 26.5141C20.6164 28.6528 19.6742 30.7719 18.8582 32.9384C18.3585 34.2652 17.5083 35.172 16.2559 35.7428C15.5025 36.0861 14.7314 36.3909 13.9112 36.7311Z" fill="#6F7B87"/>
<path d="M54.4111 38.5452C55.4133 38.8703 56.3624 39.1749 57.4373 39.5199C57.2652 39.7541 57.1413 40.0047 56.9468 40.1744C55.2514 41.6544 53.5387 43.1147 51.8414 44.5926C51.2113 45.1413 50.4532 45.2423 49.7052 45.1082C47.4151 44.6977 45.6215 43.3966 44.1264 41.695C43.3026 40.7576 42.9391 39.2871 44.022 37.9304C45.5312 36.0398 47.0417 34.1503 48.5556 32.2635C48.6268 32.1748 48.7365 32.1171 48.973 31.9313C49.6793 35.0892 51.3632 37.3665 54.4111 38.5452Z" fill="#6F7B87"/>
<path d="M14.9802 36.9059C16.0225 36.488 17.0089 36.0829 18.0609 35.6509C18.0609 36.0818 18.0916 36.3972 18.056 36.7048C17.7807 39.0793 17.4918 41.4523 17.21 43.8261C17.1898 43.9958 17.1751 44.1693 17.1868 44.3391C17.2851 45.7676 16.6614 46.7606 15.4052 47.4168C13.942 48.1811 12.4818 48.8921 10.7467 48.5451C10.2012 48.4361 9.92738 48.1981 9.80281 47.6179C9.12788 44.4742 8.67942 41.3124 8.82256 38.0868C8.82883 37.9455 8.82336 37.8037 8.82336 37.6051C10.917 37.5841 12.9877 37.7962 14.9802 36.9059Z" fill="#6F7B87"/>
<path d="M43.2628 52.9276C41.2718 52.9238 39.4624 52.579 38.0198 51.1396C37.3662 50.4874 37.0553 49.2614 37.4674 48.4356C38.8436 45.6775 40.3827 43.0168 42.308 40.596C42.3687 40.5197 42.4018 40.4214 42.5846 40.3014C43.1897 41.9402 44.4325 42.9333 45.6649 43.9581C46.926 45.0068 48.4404 45.4572 50.0269 45.9608C49.9239 46.1651 49.8758 46.3609 49.7547 46.4859C47.7952 48.5076 45.8282 50.5221 43.8562 52.5316C43.7047 52.686 43.5022 52.7904 43.2628 52.9276Z" fill="#6F7B87"/>
<path d="M44.399 21.7718C47.7112 23.0336 50.4667 25.0689 53.283 27.2713C51.8524 28.267 50.9178 29.7238 49.2795 30.1158C46.9221 30.6797 44.6657 30.3794 42.6596 28.9064C41.2521 27.873 39.9355 26.75 39.1711 25.1182C38.4315 23.5391 38.9506 21.5627 40.4387 20.6613C40.722 20.4897 41.2477 20.5873 41.6131 20.7077C42.5382 21.0124 43.4359 21.4007 44.399 21.7718Z" fill="#6F7B87"/>
<path d="M4.30532 52.0783C4.04637 51.8606 3.74235 51.6958 3.65728 51.454C2.95542 49.4588 2.0175 47.4947 2.13156 45.3251C2.20002 44.023 2.53763 42.731 2.81562 41.4478C2.86661 41.2124 3.18993 40.9002 3.42573 40.8625C5.10475 40.5944 6.6234 40.0074 7.89377 38.8476C7.92006 38.8236 7.98741 38.8446 8.14424 38.8446C8.21724 39.3645 8.29935 39.9042 8.36795 40.4457C8.69037 42.9905 8.98494 45.5392 9.33827 48.0797C9.54604 49.5736 8.63444 51.1663 7.17949 51.6307C6.26656 51.9221 5.38631 52.4624 4.30532 52.0783Z" fill="#6F7B87"/>
<path d="M57.815 38.8586C55.1946 38.4489 52.9427 37.4872 51.1565 35.52C50.061 34.3135 49.6249 32.9458 49.7229 31.3645C49.7326 31.2081 49.7847 31.0073 49.8923 30.9112C50.9282 29.9859 51.9709 29.0674 53.0324 28.1716C53.4655 27.806 53.9032 27.8676 54.3467 28.2437C55.5346 29.251 56.5401 30.394 57.2252 31.8072C57.9801 33.3641 58.8004 34.8909 59.5091 36.4682C60.1702 37.9395 59.5008 38.8707 57.815 38.8586Z" fill="#6F7B87"/>
<path d="M25.2941 46.7743C25.876 46.5919 26.3994 46.4225 27.1212 46.1888C26.8146 47.9869 26.541 49.5902 26.2681 51.1935C26.1862 51.6751 26.0919 52.1552 26.0279 52.6393C25.7647 54.6323 24.6869 55.7172 22.6719 55.8584C21.9618 55.9081 21.229 55.7658 20.5184 55.6428C19.7184 55.5045 19.2646 54.8869 19.1618 54.1718C18.8181 51.7819 18.5499 49.3806 18.2885 46.9798C18.2111 46.2691 18.733 46.5587 19.0245 46.6667C20.8815 47.3547 22.7741 47.2245 24.6751 46.9537C24.866 46.9265 25.049 46.844 25.2941 46.7743Z" fill="#6F7B87"/>
<path d="M27.6086 47.3161C27.6875 47.029 27.7509 46.8013 27.8452 46.4629C28.3588 46.8588 28.7839 47.2147 29.237 47.5304C30.616 48.4914 32.2065 48.7208 33.8302 48.809C34.2943 48.8342 34.7609 48.8123 35.2263 48.813C36.3386 48.8146 36.5406 49.0831 36.043 50.0523C35.1184 51.8532 34.1615 53.638 33.1899 55.4141C32.3666 56.9193 31.3915 56.9353 30.1633 56.7466C28.8727 56.5483 27.8064 55.8722 27.0577 54.7431C26.6225 54.0869 26.5166 53.3894 26.6467 52.6436C26.9535 50.8861 27.2766 49.1315 27.6086 47.3161Z" fill="#6F7B87"/>
<path d="M53.1908 44.0671C54.3904 43.0456 55.5557 42.0638 56.875 40.9523C56.9444 41.4486 57.0143 41.7201 57.0155 41.992C57.0295 45.0958 58.1163 47.7616 60.2916 49.97C60.7628 50.4484 60.6727 50.7316 60.1264 51.0148C58.7418 51.7325 57.3609 52.4576 55.9843 53.1905C55.456 53.4717 54.9667 53.4335 54.6125 52.958C53.8003 51.8677 53.0067 50.7619 52.2503 49.6323C51.8895 49.0934 51.584 48.5054 51.337 47.9052C50.9683 47.0097 51.1739 46.1936 51.8464 45.4939C52.2871 45.0354 52.7201 44.5695 53.1908 44.0671Z" fill="#6F7B87"/>
<path d="M38.0985 22.3661C36.828 23.2612 35.7974 24.4238 34.2408 24.7887C31.3336 25.4701 28.7719 24.8826 26.576 22.8261C26.5224 22.7759 26.4726 22.7216 26.4196 22.6707C25.375 21.6668 25.3632 21.6042 26.4052 20.5861C27.3793 19.6345 28.4681 19.0061 29.9292 19.1005C32.2975 19.2536 34.6748 19.2675 37.0441 19.4089C37.7628 19.4518 38.4725 19.705 39.1776 19.8942C39.6063 20.0092 39.7156 20.3126 39.4469 20.6725C39.0256 21.2365 38.5741 21.7779 38.0985 22.3661Z" fill="#6F7B87"/>
<path d="M121.381 40.8047C122.257 45.6372 122.731 50.479 124.196 55.1316C122.732 55.4445 121.494 54.5846 121.181 52.9931C120.704 50.5724 120.275 48.1397 119.918 45.6986C119.291 41.4188 118.731 37.1292 118.152 32.8426C118.044 32.0446 117.908 31.2399 117.922 30.4407C117.929 30.0529 118.186 29.6117 118.453 29.3014C118.776 28.9268 119.231 28.6655 119.834 28.1945C120.361 32.5141 120.864 36.6277 121.381 40.8047Z" fill="#6F7B87"/>
<path d="M76.1767 126.369C71.4173 126.097 66.8137 125.347 62.1851 124.09C62.6855 123.203 63.0794 122.422 63.565 121.703C63.681 121.531 64.1218 121.47 64.381 121.521C66.5355 121.946 68.6774 122.437 70.8341 122.85C71.7418 123.024 72.6768 123.151 73.5978 123.141C76.3104 123.114 79.0221 123.008 81.7342 122.935C81.851 122.932 81.9682 122.946 82.2651 122.962C82.1358 123.837 82.1403 124.718 81.836 125.474C81.6886 125.841 80.9774 126.135 80.4941 126.182C79.0868 126.32 77.6657 126.317 76.1767 126.369Z" fill="#6F7B87"/>
<path d="M12.5135 56.7616C11.416 54.3276 10.6954 51.8376 10.1011 49.1011C12.8316 49.4163 15.1345 48.6724 17.2267 46.8557C17.3517 47.5999 17.4561 48.1856 17.5478 48.7734C17.7624 50.1489 18.0081 51.521 18.1735 52.9026C18.4467 55.1845 17.4962 56.5205 15.2577 57.068C14.3293 57.295 13.3887 57.5141 12.5135 56.7616Z" fill="#6F7B87"/>
<path d="M76.5049 36.4965C79.5253 34.4812 82.8506 35.6991 84.4397 39.0757C84.6625 39.5491 84.7564 40.0879 84.8738 40.6046C84.986 41.0984 84.6941 41.3501 84.249 41.4056C81.3363 41.7686 78.4263 42.1614 75.5062 42.4524C74.2316 42.5795 74.0703 42.3431 74.095 41.0623C74.1316 39.1632 75.112 37.7458 76.5049 36.4965Z" fill="#6F7B87"/>
<path d="M56.4643 53.6785C57.856 52.9714 59.1956 52.2835 60.6767 51.5229C60.7132 51.9523 60.7561 52.2275 60.7569 52.5027C60.7638 54.9458 61.0271 57.3191 62.2714 59.5087C62.7976 60.4347 62.4579 61.0335 61.4054 61.1344C60.1661 61.2532 58.9118 61.3439 57.6709 61.2896C55.7816 61.207 54.2198 59.3371 54.1332 57.1642C54.0678 55.5206 54.4914 54.3876 56.4643 53.6785Z" fill="#6F7B87"/>
<path d="M56.1657 71.634C55.7672 72.9748 55.6831 74.2731 55.9065 75.5988C55.9829 76.0524 55.9925 76.5234 55.9781 76.9848C55.9557 77.7071 55.5156 78.0358 54.852 77.7549C53.2154 77.0621 51.5933 76.3323 49.9899 75.566C49.6885 75.4219 49.4019 75.0785 49.2776 74.7609C48.7108 73.3131 48.269 71.799 48.8648 70.2819C49.1327 69.5999 49.7569 69.0529 50.2472 68.4679C50.33 68.3691 50.5679 68.3287 50.7105 68.3621C52.7216 68.834 54.7285 69.3233 56.8535 69.8366C56.5937 70.5095 56.3876 71.0433 56.1657 71.634Z" fill="#6F7B87"/>
<path d="M39.128 89.2647C38.3945 89.9349 37.6571 90.5359 37.0388 91.2414C36.0376 92.3837 34.5541 92.6296 33.4412 91.6092C32.3836 90.6394 31.4077 89.5704 30.4755 88.4772C29.7793 87.6608 29.8939 87.3711 30.4383 86.4555C31.4959 84.6765 33.1906 84.2218 35.0574 84.1475C35.411 84.1334 35.8411 84.4152 36.1297 84.6773C37.324 85.762 38.4697 86.9 39.6501 88.0003C40.0894 88.4098 40.211 88.7298 39.5485 89.0079C39.4154 89.0637 39.3007 89.1632 39.128 89.2647Z" fill="#6F7B87"/>
<path d="M35.9687 80.8287C37.13 80.3389 38.2387 79.8539 39.3755 79.4473C39.6628 79.3445 40.0578 79.4352 40.3726 79.5344C42.3263 80.1495 43.9551 81.3521 45.7775 82.5055C45.4947 82.6983 45.3215 82.8447 45.1251 82.9459C43.1816 83.9475 41.8575 85.4484 41.3205 87.6012C41.1337 88.3502 40.9885 88.406 40.4358 87.8862C38.9075 86.4491 37.379 85.0109 35.8926 83.5309C35.0171 82.6592 35.0652 81.8502 35.9687 80.8287Z" fill="#6F7B87"/>
<path d="M5.36741 55.8099C4.98938 54.8381 4.64184 53.9133 4.35303 53.1448C5.65285 52.6999 6.83 52.3615 7.94868 51.8856C8.4658 51.6656 8.87265 51.182 9.32229 50.8093C9.65633 50.5323 9.87509 50.4553 10.0348 50.997C10.5857 52.8658 11.2644 54.7021 11.7098 56.5943C11.9196 57.4857 11.8167 58.4942 11.6613 59.417C11.4776 60.5078 9.64344 61.4683 8.60998 61.0948C8.342 60.9979 8.08424 60.7235 7.93753 60.4649C7.07204 58.9397 6.24072 57.395 5.36741 55.8099Z" fill="#6F7B87"/>
<path d="M43.7019 55.9352C43.3822 54.9914 43.2532 54.0991 43.9731 53.3496C45.9042 51.3392 47.8561 49.3488 49.8071 47.3576C49.9653 47.1961 50.1798 47.0896 50.4523 46.8986C50.953 48.8252 51.7844 50.5691 50.6163 52.4568C50.0307 53.4031 49.5807 54.4597 49.2325 55.5199C48.8046 56.823 47.7166 57.0975 46.6507 57.4829C45.5611 57.8768 44.7699 57.5012 44.1684 56.574C44.0357 56.3695 43.8753 56.183 43.7019 55.9352Z" fill="#6F7B87"/>
<path d="M59.7266 96.0169C58.1073 93.4881 56.1005 91.3645 53.7871 89.3136C54.4633 88.9628 55.0026 88.6483 55.5695 88.3958C56.953 87.7796 58.3419 87.2374 59.9079 87.1778C60.4649 87.1566 61.0064 86.6229 61.5466 86.3088C61.8238 86.1476 62.0826 85.9549 62.4414 85.8405C62.2033 89.6823 61.3995 93.3768 60.6879 97.0868C60.6074 97.1011 60.5269 97.1154 60.4464 97.1297C60.2146 96.7748 59.9829 96.4199 59.7266 96.0169Z" fill="#6F7B87"/>
<path d="M65.2628 103.354C65.5797 102.168 65.7746 100.982 66.7806 100.208C67.0181 100.025 67.3399 99.8475 67.6236 99.8464C69.5236 99.8391 71.4238 99.8803 73.4007 99.9067C73.3496 100.242 73.3701 100.402 73.303 100.505C72.2749 102.077 71.9495 103.889 71.5201 105.666C71.113 107.35 70.8982 107.525 69.1843 107.525C68.8719 107.525 68.5596 107.525 68.042 107.525C68.3133 107.231 68.4606 107.066 68.6127 106.906C69.1129 106.381 69.0485 105.586 68.4648 105.1C67.9802 104.697 67.0779 104.754 66.8053 105.32C66.6339 105.677 66.7455 106.186 66.7876 106.621C66.8038 106.789 66.9786 106.942 67.1275 107.174C66.3117 107.345 65.625 107.165 64.9997 106.803C64.8298 106.705 64.6922 106.349 64.7238 106.139C64.8616 105.225 65.0673 104.321 65.2628 103.354Z" fill="#6F7B87"/>
<path d="M34.2507 54.8465C35.0207 53.3441 35.7705 51.893 36.5243 50.4341C37.3818 51.1927 38.1597 52.0923 39.1276 52.6776C40.0902 53.2597 41.2438 53.5259 42.4262 53.9732C42.1435 54.3472 41.884 54.7493 41.5669 55.0992C40.3997 56.3874 39.225 57.6692 38.0303 58.9318C37.2686 59.7369 36.4058 59.8974 35.3817 59.4396C35.0064 59.2719 34.6429 59.0457 34.3272 58.7824C33.2604 57.8927 33.149 57.3794 33.6902 56.0991C33.8612 55.6948 34.05 55.298 34.2507 54.8465Z" fill="#6F7B87"/>
<path d="M47.2499 76.8105C46.1691 77.9069 45.8862 79.2558 45.7471 80.6644C45.7169 80.9705 45.6288 81.2708 45.5332 81.742C44.109 80.8995 42.6873 80.2495 41.4995 79.3052C40.1642 78.2436 39.2636 76.8545 39.8193 74.9505C40.2465 73.4872 41.6823 72.6701 43.0795 73.2268C44.5066 73.7954 45.919 74.4018 47.3284 75.0133C47.7171 75.1819 48.0723 75.4278 48.5246 75.6847C48.0437 76.1076 47.6652 76.4405 47.2499 76.8105Z" fill="#6F7B87"/>
<path d="M99.3463 97.4171C100.024 98.6563 100.732 99.8257 101.295 101.061C101.813 102.199 101.288 103.099 100.006 103.454C99.9186 103.239 99.8188 103.022 99.7413 102.798C99.456 101.97 98.6534 101.593 97.8728 101.926C97.3637 102.143 97.1667 103.088 97.6092 103.659C98.0548 104.235 97.7586 104.353 97.2647 104.465C95.9174 104.772 95.5467 104.594 95.1 103.263C94.5748 101.698 93.9221 100.214 92.7884 98.9813C92.5198 98.6892 92.3214 98.3499 92.7944 98.0811C94.2685 97.2436 95.8184 96.6077 97.5258 96.4421C98.3163 96.3654 98.8686 96.7749 99.3463 97.4171Z" fill="#6F7B87"/>
<path d="M2.79983 62.793C2.38453 60.5016 1.97954 58.2703 1.57195 56.0395C1.46877 55.4748 1.77124 55.2287 2.24479 54.9952C2.84554 54.699 3.38839 54.2853 4.026 53.8777C4.18827 54.2552 4.35172 54.6792 4.54904 55.0867C5.27037 56.5765 5.92725 58.1044 6.75234 59.535C7.60137 61.007 7.62872 62.3804 6.73065 63.7991C6.48259 64.1909 6.26805 64.6049 6.00648 64.9871C5.57532 65.6171 4.90722 65.9351 4.22884 65.6816C3.81668 65.5276 3.47162 64.9914 3.26287 64.5484C3.0175 64.0277 2.95244 63.4221 2.79983 62.793Z" fill="#6F7B87"/>
<path d="M56.6157 80.3018C57.0572 82.1342 57.4921 83.9044 57.9803 85.8916C57.2469 86.2575 56.3045 86.7442 55.3469 87.1986C54.8187 87.4493 54.224 87.5792 53.7311 87.8808C52.7439 88.4849 51.9446 88.3197 51.181 87.5024C50.867 87.1663 50.4798 86.8922 50.1021 86.6235C49.5526 86.2325 49.5428 85.8051 49.977 85.3418C50.6451 84.6289 51.3066 83.9078 52.008 83.2285C53.3219 81.9559 54.6612 80.7095 55.9939 79.4564C56.0922 79.364 56.2219 79.305 56.4008 79.1892C56.4798 79.5875 56.5445 79.9136 56.6157 80.3018Z" fill="#6F7B87"/>
<path d="M49.9175 83.3412C48.907 83.0173 47.9212 82.7429 47.0131 82.3068C46.6918 82.1524 46.4468 81.6277 46.3619 81.2304C46.0414 79.732 47.1492 77.2284 48.5067 76.4809C48.9138 76.2568 49.5676 76.1851 49.9942 76.3461C51.4263 76.8864 52.8 77.5792 54.2102 78.1807C54.8452 78.4515 54.7431 78.7748 54.365 79.1642C53.225 80.3384 52.0914 81.519 50.9309 82.6726C50.6612 82.9407 50.2948 83.1114 49.9175 83.3412Z" fill="#6F7B87"/>
<path d="M56.5618 66.9479C56.1913 65.6347 55.9639 64.3693 56.3216 63.072C56.4963 62.4386 56.892 62.0889 57.5769 62.0568C59.1319 61.9839 60.6857 61.8858 62.5145 61.7823C61.9788 63.7593 61.5124 65.5342 61.0119 67.2994C60.8262 67.9544 60.5306 68.578 60.3398 69.2319C60.1384 69.9222 59.6661 69.9151 59.1336 69.7674C57.7171 69.3743 56.9888 68.3338 56.5618 66.9479Z" fill="#6F7B87"/>
<path d="M55.5125 68.9433C54.1237 68.5959 52.8068 68.2162 51.4681 67.9431C50.0454 67.6528 49.1297 66.2198 49.68 64.732C50.535 62.4203 50.4685 62.3958 52.8989 62.3958C53.7767 62.3958 54.6544 62.3958 55.5667 62.3958C55.7435 64.6827 55.4727 66.9295 56.7434 69.0281C56.245 68.9982 55.91 68.9781 55.5125 68.9433Z" fill="#6F7B87"/>
<path d="M60.465 39.5383C60.9682 41.4012 61.4244 43.2199 61.9369 45.0226C62.3872 46.6066 62.3465 48.2007 62.2028 49.8287C61.0389 50.1597 60.4432 49.3437 59.8844 48.6506C58.3702 46.7722 57.5342 44.6171 57.524 42.1764C57.5175 40.6305 58.5156 39.6572 59.6011 38.8265C60.1793 38.384 60.1945 39.208 60.465 39.5383Z" fill="#6F7B87"/>
<path d="M27.6701 83.3655C27.4366 82.8221 27.2191 82.332 27.0158 81.8361C26.6026 80.8283 26.8547 80.1624 27.854 79.7101C29.2439 79.0809 30.5585 78.9596 31.7327 80.2181C32.4314 80.9669 33.2321 81.6194 33.967 82.3358C34.2584 82.62 34.4958 82.9597 34.8329 83.3644C34.3799 83.54 34.0352 83.757 33.6698 83.8005C32.2938 83.964 31.2976 84.7307 30.3856 85.6925C29.5322 86.5926 29.2886 86.5452 28.7103 85.4427C28.3592 84.7734 28.031 84.0921 27.6701 83.3655Z" fill="#6F7B87"/>
<path d="M102.699 37.9797C101.403 38.261 100.173 38.5745 98.9242 38.7736C97.6944 38.9697 97.4101 38.6684 97.4238 37.4254C97.449 35.1384 99.8175 33.3028 102.261 33.5457C104.121 33.7305 104.999 34.929 105.676 36.4354C105.845 36.8095 105.716 37.0233 105.33 37.1414C104.469 37.4047 103.614 37.6871 102.699 37.9797Z" fill="#6F7B87"/>
<path d="M19.8811 21.4973C21.8673 20.6031 23.8612 19.9195 26.1614 19.4734C25.9117 19.8726 25.8084 20.148 25.6159 20.3278C24.1002 21.7438 22.6152 23.1985 21.0252 24.5269C19.731 25.6082 18.1412 26.0228 16.4531 26.0201C15.8414 26.0191 15.2257 26.0617 14.6196 26.0037C14.2725 25.9705 13.941 25.7749 13.4512 25.5976C15.4489 23.7475 17.6624 22.6683 19.8811 21.4973Z" fill="#6F7B87"/>
<path d="M26.459 117.349C26.5184 116.978 26.5724 116.67 26.6528 116.212C27.1306 116.519 27.5313 116.732 27.8821 117.008C28.9646 117.862 30.0987 118.124 31.423 117.562C32.3501 117.169 32.5213 117.338 32.4535 118.374C32.3798 119.498 32.3011 120.622 32.1903 121.742C32.17 121.948 32.0366 122.23 31.8701 122.322C29.5651 123.582 27.4432 122.969 26.4178 120.602C26.032 119.711 26.4189 118.486 26.459 117.349Z" fill="#6F7B87"/>
<path d="M21.4256 82.9735C21.3354 82.2642 21.6311 81.9546 22.2324 81.7254C23.2462 81.3389 24.2664 81.1528 25.3002 81.4689C25.7265 81.5993 26.2346 81.9075 26.4266 82.279C27.1301 83.6405 27.718 85.0619 28.343 86.4636C28.3794 86.5452 28.3596 86.6519 28.3699 86.806C27.4892 86.6955 26.6268 86.4533 25.7868 86.5155C24.7127 86.5949 23.6331 86.8428 22.5998 87.161C21.6292 87.4599 21.4277 87.3885 21.426 86.3448C21.4242 85.244 21.4256 84.1432 21.4256 82.9735Z" fill="#6F7B87"/>
<path d="M29.5023 111.461C30.5917 111.47 31.6164 111.47 32.7669 111.47C32.7059 112.816 32.6927 114.154 32.5675 115.482C32.4922 116.281 31.5981 116.981 30.7167 117.072C29.0929 117.238 27.8924 116.519 26.9898 115.228C26.8869 115.081 26.8243 114.856 26.8454 114.68C27.0066 113.33 27.1932 111.983 27.3771 110.596C28.1668 110.924 28.8022 111.188 29.5023 111.461Z" fill="#6F7B87"/>
<path d="M106.52 99.2731C105.86 100.08 105.841 100.08 105.211 99.3144C104.834 98.8563 104.059 98.732 103.578 99.0526C103.149 99.3395 103.068 99.9855 103.398 100.555C103.555 100.826 103.724 101.09 103.889 101.359C102.665 102.044 102.283 101.844 101.776 100.671C101.075 99.0471 100.238 97.4822 99.3779 95.726C99.9538 95.4317 100.699 95.0553 101.441 94.6707C103.228 93.7437 104.262 94.3929 105.287 95.9589C105.751 96.667 106.104 97.4542 106.443 98.2333C106.568 98.5205 106.511 98.8873 106.52 99.2731Z" fill="#6F7B87"/>
<path d="M39.1361 121.811C38.6807 122.262 38.2905 122.839 37.7699 123.004C36.2831 123.474 34.7782 123.466 33.464 122.44C33.2718 122.29 33.103 121.971 33.106 121.733C33.1219 120.489 33.1967 119.246 33.252 117.981C34.2336 118.154 35.1733 118.467 36.1041 118.443C37.0248 118.418 37.9364 118.053 38.9421 117.816C39.2831 119.087 39.0907 120.427 39.1361 121.811Z" fill="#6F7B87"/>
<path d="M38.869 114.411C38.869 114.876 38.8395 115.269 38.8742 115.657C39.0074 117.148 37.9711 117.815 36.27 117.913C34.4523 118.018 33.2587 117.091 33.2721 115.666C33.2842 114.376 33.4018 113.087 33.4846 111.584C35.2072 112.836 36.9286 113.218 38.869 112.154C38.869 113.029 38.869 113.684 38.869 114.411Z" fill="#6F7B87"/>
<path d="M42.5596 70.9437C44.1676 69.8719 45.7358 68.8363 47.3008 67.7957C47.9095 67.391 48.628 67.4596 49.4899 68.0889C47.4658 69.9904 47.81 72.3084 48.5578 74.8865C47.7724 74.5692 47.1995 74.3542 46.64 74.1085C45.3242 73.5307 44.0018 72.9651 42.7068 72.3431C41.6558 71.8383 41.6616 71.73 42.5596 70.9437Z" fill="#6F7B87"/>
<path d="M44.6171 121.975C43.5816 122.612 42.4838 122.881 41.3655 122.641C40.2305 122.398 39.9018 121.851 39.8543 120.709C39.8148 119.757 39.7579 118.806 39.71 117.879C41.2724 117.646 42.8098 117.417 44.5183 117.162C44.7335 118.248 45.0383 119.476 45.1869 120.722C45.2322 121.102 44.8471 121.533 44.6171 121.975Z" fill="#6F7B87"/>
<path d="M7.74755 85.9828C8.37882 85.7241 8.95171 85.4327 9.55952 85.2892C10.5908 85.0457 11.5997 85.6142 11.9526 86.6016C12.2063 87.3114 12.4106 88.0416 12.5897 88.7742C12.6843 89.1611 12.5984 89.5274 12.0828 89.5531C10.3329 89.6404 8.87315 90.3118 7.75269 91.6802C7.71054 91.7317 7.62779 91.7499 7.46432 91.8363C7.34973 91.5729 7.14872 91.3239 7.14821 91.0745C7.14521 89.6227 7.16775 88.1698 7.23872 86.72C7.25054 86.4786 7.54241 86.2508 7.74755 85.9828Z" fill="#6F7B87"/>
<path d="M69.5795 112.482C68.7706 112.344 68.0088 112.272 67.291 112.054C66.8798 111.93 66.4174 111.649 66.1915 111.3C65.5509 110.311 65.1921 109.207 65.2843 107.939C67.0133 108.066 68.709 108.178 70.4002 108.337C70.5901 108.354 70.8152 108.611 70.9206 108.812C71.4063 109.736 71.8433 110.685 72.3222 111.613C72.6054 112.162 72.5248 112.462 71.9014 112.515C71.1556 112.579 70.3977 112.502 69.5795 112.482Z" fill="#6F7B87"/>
<path d="M31.5313 79.0483C31.0944 78.5182 30.8985 78.0049 31.3023 77.4169C31.9402 76.4879 32.9436 75.9213 33.7856 76.2537C35.4705 76.919 37.1032 77.7163 38.7451 78.5926C37.1 79.4984 35.3532 80.1118 34.5533 82.0468C33.3076 81.2235 32.4342 80.159 31.5313 79.0483Z" fill="#6F7B87"/>
<path d="M7.95385 37.4709C6.89578 39.1415 5.44999 40.0825 3.32031 40.2849C4.17918 36.4564 6.24506 33.4435 8.64568 30.5665C8.51516 32.8676 8.47625 35.1638 7.95385 37.4709Z" fill="#6F7B87"/>
<path d="M41.8195 87.7269C42.4437 85.6178 43.5915 84.0431 45.7067 83.3387C46.9656 82.9195 48.0546 83.388 49.079 84.0529C49.1563 84.1031 49.088 84.6235 48.9426 84.7331C47.3485 85.9344 45.7303 87.104 44.1065 88.2652C43.7917 88.4904 43.426 88.6452 43.0807 88.8267C42.2235 89.2774 41.8448 89.0542 41.8074 88.0785C41.8037 87.9809 41.8084 87.883 41.8195 87.7269Z" fill="#6F7B87"/>
<path d="M52.6216 137.668C53.3157 139.442 52.631 140.093 51.1399 140.767C50.2251 141.181 49.2101 141.428 48.2396 141.002C47.8605 140.836 47.4925 140.385 47.3541 139.983C47.064 139.141 46.9296 138.246 46.7061 137.26C48.0001 137.037 49.1937 136.831 50.3875 136.626C50.5557 136.597 50.7256 136.577 50.8933 136.546C52.2372 136.296 52.2371 136.295 52.6216 137.668Z" fill="#6F7B87"/>
<path d="M19.0147 147.389C19.2668 146.114 19.5057 144.901 19.7544 143.638C20.7203 144.116 21.529 144.72 22.4235 144.902C23.3205 145.084 24.303 144.844 25.3588 144.783C25.0603 145.978 24.799 147.134 24.4602 148.268C24.4048 148.453 24.0031 148.656 23.7694 148.647C22.3558 148.591 20.943 148.494 19.5334 148.372C18.9899 148.324 18.8972 147.922 19.0147 147.389Z" fill="#6F7B87"/>
<path d="M10.9702 96.1381C11.4767 95.6463 11.8846 95.0851 12.4338 94.7706C13.7444 94.0199 15.1921 93.7033 16.5562 93.7473C16.6763 94.6911 16.7323 95.5773 16.9173 96.4357C17.0502 97.0527 16.8809 97.3804 16.2965 97.4951C15.1938 97.7114 14.0856 97.8997 12.9811 98.1067C12.151 98.2623 11.323 98.4289 10.4795 98.5934C10.2323 97.6336 10.6242 96.9153 10.9702 96.1381Z" fill="#6F7B87"/>
<path d="M12.1495 93.4519C10.4811 93.9754 9.18559 94.9162 8.1641 96.4454C8.00453 96.1878 7.86311 96.0364 7.80758 95.8583C7.09363 93.5679 7.25256 92.9641 9.05298 91.3229C9.79155 90.6496 10.6835 90.2467 11.6737 90.1249C12.7745 89.9896 13.2367 90.3107 13.5613 91.3651C13.6465 91.6419 13.6616 91.9395 13.7349 92.2208C13.905 92.8736 13.6454 93.1889 12.9909 93.2526C12.7257 93.2783 12.4668 93.3693 12.1495 93.4519Z" fill="#6F7B87"/>
<path d="M25.8346 117.738C25.7234 118.454 25.6932 119.127 25.4961 119.747C25.3815 120.107 25.0584 120.545 24.7263 120.666C23.5269 121.104 21.8704 120.491 21.1661 119.441C21.0643 119.29 20.9704 119.077 20.9918 118.907C21.1436 117.707 21.3265 116.51 21.5244 115.138C23.0092 115.879 24.4336 116.177 25.9986 115.849C25.9418 116.526 25.8937 117.1 25.8346 117.738Z" fill="#6F7B87"/>
<path d="M75.1546 110.299C74.8854 110.778 74.6984 111.288 74.3404 111.602C73.8094 112.067 73.265 111.673 72.9722 111.244C72.0447 109.885 71.1779 108.527 71.9842 106.712C72.3915 105.795 72.3632 104.694 72.6837 103.727C72.9761 102.844 73.448 102.016 73.8958 101.194C74.0298 100.947 74.2322 100.481 74.6728 100.826C75.0804 101.145 75.3401 101.551 75.0244 102.094C74.8649 102.368 74.6741 102.631 74.5579 102.923C73.6561 105.187 73.6218 107.419 74.8422 109.596C74.9592 109.805 75.0547 110.026 75.1546 110.299Z" fill="#6F7B87"/>
<path d="M15.1386 82.3318C15.2368 82.1023 15.3135 81.923 15.3986 81.7477C15.9774 80.5542 16.3738 80.3279 17.6244 80.7462C19.7768 81.4663 20.5874 81.9313 20.6906 84.804C20.7102 85.3506 20.6934 85.8984 20.6934 86.5254C18.6807 85.7776 17.0535 84.7653 15.5696 83.5124C15.2214 83.2184 14.9246 82.8975 15.1386 82.3318Z" fill="#6F7B87"/>
<path d="M22.2366 144.148C21.5437 143.681 20.8997 143.247 20.2757 142.787C20.1574 142.699 20.0332 142.49 20.0559 142.362C20.2544 141.246 20.4856 140.135 20.8166 138.955C22.281 140.83 24.1887 141.061 26.4228 140.593C26.2273 141.527 26.1482 142.335 25.8682 143.067C25.7194 143.456 25.2637 143.905 24.8744 143.988C24.0385 144.166 23.1559 144.124 22.2366 144.148Z" fill="#6F7B87"/>
<path d="M26.3081 110.422C26.4885 110.572 26.716 110.741 26.7017 110.886C26.592 112.001 26.4377 113.111 26.2921 114.222C26.2072 114.87 25.8071 115.291 25.1842 115.279C24.396 115.264 23.5805 115.188 22.8333 114.955C22.1816 114.753 21.7628 114.225 21.9045 113.421C22.1012 112.304 22.2577 111.181 22.4537 109.916C23.784 110.427 24.9626 110.973 26.3081 110.422Z" fill="#6F7B87"/>
<path d="M93.2017 105.643C93.0344 104.565 92.9457 103.534 92.6894 102.547C92.4339 101.562 91.8468 100.819 90.6134 100.957C90.6134 100.613 90.5348 100.333 90.6304 100.14C90.8079 99.7813 91.0397 99.4097 91.3493 99.1768C91.4584 99.0947 91.9591 99.3326 92.1128 99.5457C92.7185 100.385 93.3065 101.246 93.8075 102.151C94.3582 103.145 94.8085 104.195 95.295 105.225C95.354 105.35 95.4087 105.502 95.3934 105.633C95.286 106.554 95.2235 107.488 95.0241 108.391C94.7481 109.641 93.8294 109.956 92.7763 109.231C92.5351 109.065 92.2888 108.896 92.0834 108.69C91.7417 108.348 91.72 107.959 92.1879 107.742C93.0897 107.323 93.3368 106.621 93.2017 105.643Z" fill="#6F7B87"/>
<path d="M37.2661 73.1922C38.5863 72.7951 39.7486 72.0667 41.2023 72.1155C40.6025 73.0139 39.3704 73.4646 39.2988 74.674C39.2351 75.7523 39.2854 76.8374 39.2854 77.9504C39.1456 77.9504 38.9852 77.9961 38.8698 77.9434C37.365 77.2557 35.7724 76.7256 34.5197 75.576C33.8006 74.9161 33.9388 74.0736 34.8642 73.7716C35.6255 73.5231 36.425 73.3914 37.2661 73.1922Z" fill="#6F7B87"/>
<path d="M55.4324 135.296C55.9168 135.113 56.3471 134.95 56.9203 134.732C57.2249 136.013 57.6155 137.2 57.7648 138.417C57.9032 139.545 56.0443 140.65 54.8261 140.266C54.1283 140.047 53.6186 139.621 53.4453 138.889C53.2882 138.226 53.1646 137.553 53.0472 136.881C52.9692 136.435 53.1439 136.149 53.6053 135.999C54.207 135.804 54.7882 135.546 55.4324 135.296Z" fill="#6F7B87"/>
<path d="M48.5129 96.6412C47.9087 96.4264 47.3615 96.224 46.6548 95.9625C46.9465 95.0248 47.214 94.0983 47.5255 93.1869C47.7299 92.5887 47.9924 92.0099 48.2391 91.4268C48.4202 90.9986 48.6984 90.8324 49.1471 91.1011C49.8147 91.5009 50.4964 91.8773 51.1645 92.2763C51.7963 92.6534 51.7424 93.3003 51.6077 93.8443C51.3576 94.8546 50.8571 95.7801 49.9425 96.3385C49.5625 96.5706 49.0319 96.5559 48.5129 96.6412Z" fill="#6F7B87"/>
<path d="M83.314 105.413C82.9904 103.792 82.0337 102.693 80.7654 101.823C79.9013 101.231 79.8999 100.982 80.8412 100.488C82.7485 99.4877 84.6043 99.8594 86.6396 100.776C85.0545 102.5 83.9589 104.385 83.8595 106.721C83.7584 106.718 83.6573 106.714 83.5562 106.711C83.4796 106.298 83.4029 105.886 83.314 105.413Z" fill="#6F7B87"/>
<path d="M4.38049 91.5761C3.97477 91.5928 3.63726 91.6077 3.0752 91.6324C3.29986 89.7034 3.48335 87.8415 3.75905 85.9934C3.81668 85.6071 4.01534 85.0845 4.6683 85.1401C5.42614 85.2046 6.26338 85.7249 6.28347 86.3868C6.34107 88.2852 6.30376 90.1865 6.30376 92.1104C5.72333 91.9426 5.08601 91.7585 4.38049 91.5761Z" fill="#6F7B87"/>
<path d="M17.3239 95.7354C17.0058 94.4001 17.7339 93.2084 19.0101 92.8936C19.6741 92.7298 20.3362 92.5574 21.0028 92.4051C21.478 92.2966 21.7215 92.4536 21.7564 92.9922C21.818 93.9427 21.9308 94.8911 22.0573 95.8357C22.1234 96.3292 21.9825 96.6239 21.4789 96.7306C20.548 96.9279 19.6261 97.1855 18.6862 97.3125C18.4121 97.3495 18.0097 97.0952 17.81 96.8549C17.5718 96.5684 17.4885 96.1532 17.3239 95.7354Z" fill="#6F7B87"/>
<path d="M95.9116 106.951C96.1401 105.391 96.1458 105.416 97.6209 105.063C98.5196 104.848 99.4102 104.581 100.28 104.268C100.879 104.053 101.137 104.221 101.253 104.815C101.5 106.075 101.096 107.118 99.9286 107.685C98.6028 108.329 97.2147 108.845 95.6792 109.49C95.7691 108.504 95.8369 107.76 95.9116 106.951Z" fill="#6F7B87"/>
<path d="M39.5753 115.664C39.5723 114.587 39.5723 113.576 39.5723 112.324C41.0984 113.251 42.324 112.618 43.7001 111.948C43.8159 113.344 43.9562 114.548 43.9851 115.755C43.9917 116.03 43.6738 116.425 43.401 116.575C42.4247 117.114 41.3901 117.292 40.3214 116.783C39.8682 116.567 39.5419 116.282 39.5753 115.664Z" fill="#6F7B87"/>
<path d="M50.8612 118.135C51.071 119.648 49.936 120.256 49.0261 120.907C48.5388 121.255 47.7888 121.415 47.1776 121.371C46.1742 121.301 45.1537 119.387 45.5039 118.424C45.5544 118.285 45.7098 118.133 45.85 118.086C47.3844 117.569 48.9255 117.071 50.5143 116.552C50.6422 117.13 50.7463 117.601 50.8612 118.135Z" fill="#6F7B87"/>
<path d="M6.0259 92.7888C7.15209 93.8859 6.90834 95.2885 7.10078 96.5433C5.62618 96.7357 4.22142 96.9191 2.72733 97.114C2.60108 95.6778 2.51307 94.1812 3.14194 92.7553C3.43051 92.101 4.18174 91.8736 4.89514 92.1675C5.27495 92.3239 5.62442 92.5541 6.0259 92.7888Z" fill="#6F7B87"/>
<path d="M23.3363 136.363C24.4967 136.693 25.592 137.048 26.7119 137.29C27.3297 137.424 27.3428 137.722 27.2725 138.226C26.9776 140.338 24.2451 140.662 22.9339 139.875C21.4026 138.957 20.955 137.562 21.7079 135.912C22.2204 136.051 22.751 136.196 23.3363 136.363Z" fill="#6F7B87"/>
<path d="M47.4254 89.5593C48.0008 89.5492 48.1416 89.761 47.9454 90.2419C47.6693 90.9185 47.4395 91.614 47.1625 92.2903C46.7876 93.2058 44.9209 93.8506 43.9006 93.3824C43.3745 93.1409 42.8721 92.8185 42.4164 92.4596C41.7252 91.9153 41.7637 91.3455 42.4519 90.7737C43.4715 89.9265 44.5508 89.2834 45.9679 89.5225C46.4209 89.5989 46.8954 89.5484 47.4254 89.5593Z" fill="#6F7B87"/>
<path d="M31.6767 126.601C29.7589 126 27.9018 125.416 26.0616 124.783C25.8675 124.717 25.6461 124.358 25.654 124.143C25.6809 123.416 25.8055 122.692 25.9088 121.833C26.1847 121.969 26.433 122.018 26.5647 122.168C28.1369 123.962 30.021 123.735 32.0846 123.069C32.6251 124.17 32.2282 125.398 32.3742 126.637C32.1161 126.624 31.9292 126.615 31.6767 126.601Z" fill="#6F7B87"/>
<path d="M15.4396 139.409C15.5083 138.938 15.5721 138.531 15.6624 137.956C17.0932 138.637 18.5428 138.761 20.1293 138.298C20.005 139.727 19.8746 141.003 19.251 142.153C18.9356 142.735 17.7865 143.026 17.1612 142.782C15.7341 142.225 15.1923 141.187 15.4396 139.409Z" fill="#6F7B87"/>
<path d="M53.3937 142.881C53.1949 144.008 51.9658 144.929 50.6182 145.024C48.4823 145.176 47.7402 144.418 47.6421 141.897C49.5705 142.072 51.3849 141.771 52.8886 140.392C52.969 140.408 53.0494 140.423 53.1298 140.439C53.2177 141.231 53.3057 142.024 53.3937 142.881Z" fill="#6F7B87"/>
<path d="M64.2756 104.312C64.0418 105.202 64.1815 106.129 63.7043 106.888C63.6239 106.892 63.5435 106.895 63.4631 106.899C62.7425 104.442 62.0218 101.985 61.2236 99.2632C62.3376 99.3208 63.2617 99.2618 64.1393 99.4365C65.8931 99.7857 65.8285 99.5018 65.1928 101.245C64.8348 102.226 64.5825 103.247 64.2756 104.312Z" fill="#6F7B87"/>
<path d="M37.3038 60.5617C39.0757 58.6511 40.8074 56.7777 42.5279 54.9165C43.2175 56.05 43.8684 57.1197 44.6113 58.3409C42.0722 59.3263 39.5365 60.3105 37.0009 61.2946C36.9628 61.2471 36.9248 61.1996 36.8867 61.1522C37.0124 60.9677 37.1381 60.7833 37.3038 60.5617Z" fill="#6F7B87"/>
<path d="M33.422 126.626C33.3535 125.55 33.3535 124.489 33.3535 123.517C34.2989 123.637 35.3075 123.877 36.3104 123.856C37.0761 123.84 37.8596 123.555 38.5889 123.272C39.2209 123.026 39.3675 123.039 39.4213 123.709C39.4428 123.976 39.4449 124.245 39.4605 124.513C39.5443 125.954 39.5473 125.974 38.1436 126.144C36.5953 126.332 35.0418 126.478 33.422 126.626Z" fill="#6F7B87"/>
<path d="M53.2075 94.1244C53.6734 94.6955 54.0743 95.2538 54.5433 95.7474C55.5702 96.8283 54.8718 98.1229 53.6658 98.5826C52.0028 99.2165 51.3338 99.2286 49.7222 97.5448C50.7002 96.312 52.2587 95.4432 52.3758 93.5044C52.7161 93.751 52.9448 93.9167 53.2075 94.1244Z" fill="#6F7B87"/>
<path d="M24.2331 88.5611C23.7841 88.3238 23.3865 88.1082 22.9889 87.8927C22.9797 87.8171 22.9706 87.7414 22.9614 87.6658C23.2889 87.5121 23.6016 87.2946 23.9462 87.2153C25.8108 86.7862 27.5252 87.2482 29.1245 88.2062C29.4268 88.3873 29.6588 88.7026 29.8887 88.9842C30.4127 89.6264 30.9195 90.2827 31.4238 90.9405C31.5744 91.137 31.6936 91.3576 31.8271 91.5671C31.7708 91.6468 31.7144 91.7265 31.658 91.8062C29.2002 90.7318 26.7424 89.6574 24.2331 88.5611Z" fill="#6F7B87"/>
<path d="M16.0322 134.9C16.1112 134.374 16.1838 133.916 16.2736 133.349C16.5638 133.453 16.8325 133.523 17.0785 133.64C18.0914 134.124 19.093 134.631 20.1071 135.112C21.0222 135.546 21.142 136.774 20.3214 137.433C19.182 138.348 17.2425 138.265 16.2317 137.234C16.0983 137.098 16.0218 136.854 16.014 136.657C15.9916 136.095 16.0183 135.531 16.0322 134.9Z" fill="#6F7B87"/>
<path d="M10.878 81.3217C11.0924 81.4327 11.3662 81.5169 11.3842 81.639C11.5506 82.7629 11.6727 83.8933 11.8213 85.1348C10.2664 84.6449 8.85748 84.6359 7.23682 85.2621C7.38504 83.8493 7.48564 82.6037 7.66223 81.3689C7.72113 80.957 8.03332 80.7172 8.53401 80.8388C9.28935 81.0223 10.0565 81.1571 10.878 81.3217Z" fill="#6F7B87"/>
<path d="M102.726 106.378C102.429 106.188 101.999 105.997 101.971 105.759C101.876 104.966 101.89 104.154 101.944 103.355C101.959 103.118 102.23 102.716 102.41 102.701C103.857 102.582 105.015 101.823 106.168 101.066C107.07 102.318 106.5 104.046 105.552 104.764C104.708 105.402 103.708 105.833 102.726 106.378Z" fill="#6F7B87"/>
<path d="M34.384 68.3495C37.5497 66.5838 40.7523 65.0347 44.3059 63.8962C43.6512 65.704 34.4893 70.2428 32.6606 69.6064C33.2737 69.1606 33.8082 68.7718 34.384 68.3495Z" fill="#6F7B87"/>
<path d="M53.7825 147.427C53.8093 147.968 53.5379 148.187 53.109 148.157C51.673 148.059 50.2392 147.928 48.8042 147.813C48.3167 147.774 48.1272 147.512 48.1509 147.032C48.1746 146.55 48.1561 146.065 48.1561 145.454C50.1185 146.071 51.8289 145.493 53.6355 144.451C53.6928 145.586 53.7377 146.474 53.7825 147.427Z" fill="#6F7B87"/>
<path d="M56.6441 111.295C58.1869 111.704 59.672 112.093 61.155 112.49C61.4364 112.565 61.7156 112.656 61.986 112.764C63.0891 113.206 63.1296 113.28 63.0146 114.597C62.5196 114.47 62.037 114.344 61.5535 114.221C58.9575 113.564 56.3619 112.904 53.7643 112.253C53.3095 112.139 52.8279 112.098 52.8291 111.447C52.8297 111.09 52.9236 110.878 53.3264 110.922C54.4126 111.043 55.4992 111.16 56.6441 111.295Z" fill="#6F7B87"/>
<path d="M52.7285 99.6232C53.7579 99.081 54.7474 98.5762 55.8291 98.0244C55.9229 98.1543 56.1523 98.3839 56.2768 98.6606C56.7157 99.6361 57.1362 100.621 57.5292 101.616C57.804 102.312 57.6073 102.648 56.8712 102.846C56.0643 103.063 55.2101 102.984 54.6703 102.404C53.9072 101.585 53.3398 100.584 52.7285 99.6232Z" fill="#6F7B87"/>
<path d="M53.7119 58.1692C54.245 59.3347 54.762 60.4408 55.2948 61.5807C53.9965 61.5807 52.6033 61.5807 51.0957 61.5807C51.1899 60.9851 51.2758 60.394 51.3782 59.8058C51.5579 58.7735 51.7505 57.7436 51.9326 56.7118C52.0888 55.8264 52.594 55.3622 53.5104 55.29C53.5722 56.23 53.6339 57.1699 53.7119 58.1692Z" fill="#6F7B87"/>
<path d="M16.071 146.575C14.8138 145.458 15.0365 144.061 15.1339 142.455C16.4126 143.28 17.682 143.624 19.2446 143.235C18.9973 144.689 18.8002 146.006 18.5379 147.31C18.4354 147.819 17.9528 147.741 17.6398 147.583C17.1031 147.312 16.6175 146.939 16.071 146.575Z" fill="#6F7B87"/>
<path d="M55.3159 106.414C55.12 105.449 54.9359 104.541 54.7393 103.571C55.8227 103.454 56.8304 103.323 57.8422 103.258C58.0024 103.247 58.2707 103.499 58.3367 103.684C58.624 104.488 58.9074 105.301 59.0771 106.135C59.1345 106.416 58.9351 106.852 58.7103 107.071C57.792 107.966 55.8704 107.601 55.3159 106.414Z" fill="#6F7B87"/>
<path d="M57.3985 140.343C57.4968 140.313 57.5576 140.288 57.59 140.309C58.468 140.868 58.4891 143.269 57.6243 143.823C56.862 144.311 56.0114 144.396 55.1597 144.243C54.5395 144.131 54.0499 143.788 53.9938 143.043C53.945 142.394 53.834 141.75 53.7651 141.218C55.0195 140.921 56.1837 140.645 57.3985 140.343Z" fill="#6F7B87"/>
<path d="M10.4971 99.3055C11.7179 98.8537 12.9113 98.5763 14.356 98.6695C14.1457 99.7992 13.965 100.86 13.7337 101.91C13.7011 102.058 13.4285 102.24 13.2547 102.254C12.4323 102.321 11.6055 102.354 10.7804 102.352C10.5886 102.351 10.357 102.206 10.2131 102.06C9.68753 101.525 9.84444 99.8574 10.4971 99.3055Z" fill="#6F7B87"/>
<path d="M60.7104 102.09C60.6731 102.269 60.6573 102.458 60.5743 102.494C59.7527 102.856 58.5735 102.463 58.2005 101.636C57.5717 100.241 57.0116 98.816 56.376 97.2918C56.8569 97.1231 57.3408 96.9034 57.8484 96.8017C58.0343 96.7644 58.3748 96.951 58.4774 97.1309C59.3684 98.6937 60.3429 100.224 60.7104 102.09Z" fill="#6F7B87"/>
<path d="M44.6682 122.791C44.9815 122.642 45.2389 122.504 45.6377 122.291C45.8162 122.892 46.012 123.454 46.133 124.032C46.1603 124.163 45.9604 124.437 45.8084 124.494C44.2035 125.1 42.5743 125.637 40.8284 125.542C40.6212 125.53 40.3083 125.222 40.2583 125.002C40.1343 124.458 40.1343 123.886 40.0923 123.412C41.6161 123.207 43.1142 123.005 44.6682 122.791Z" fill="#6F7B87"/>
<path d="M46.8419 122.102C48.6889 122.123 49.9257 121.019 51.3567 119.81C51.6083 120.783 51.8413 121.605 52.014 122.44C52.0393 122.562 51.8055 122.833 51.644 122.884C50.2742 123.316 48.8996 123.737 47.5092 124.094C47.303 124.147 46.9244 123.911 46.7729 123.702C46.5661 123.416 46.4975 123.029 46.3754 122.684C46.2419 122.307 46.4095 122.136 46.8419 122.102Z" fill="#6F7B87"/>
<path d="M57.9768 74.7374C57.5823 75.311 57.2119 75.8359 56.8416 76.3609C56.7715 76.3312 56.7014 76.3015 56.6313 76.2718C56.3138 74.3158 55.8622 72.3545 57.3323 70.5709C57.649 70.1867 57.925 70.0355 58.4367 70.1529C60.0418 70.5213 60.0457 70.4979 59.3092 72.0002C58.8706 72.8951 58.4369 73.7925 57.9768 74.7374Z" fill="#6F7B87"/>
<path d="M32.102 137.972C31.6077 138.934 31.5223 140.117 30.5331 140.785C29.6777 141.362 28.4356 141.168 27.789 140.34C27.3594 139.79 27.5622 138.296 28.176 137.784C28.3615 137.629 28.662 137.508 28.8942 137.531C29.9522 137.635 31.0047 137.795 32.102 137.972Z" fill="#6F7B87"/>
<path d="M54.127 145.47C54.141 145.083 54.0865 144.734 54.6159 144.828C55.9657 145.066 57.2968 145.128 58.464 144.125C58.5243 144.165 58.5845 144.204 58.6447 144.244C58.6447 144.965 58.6654 145.687 58.6283 146.406C58.6203 146.561 58.4352 146.769 58.2791 146.846C57.0325 147.462 55.7753 148.06 54.127 147.941C54.127 147.13 54.127 146.335 54.127 145.47Z" fill="#6F7B87"/>
<path d="M56.3161 110.742C56.1063 110.557 55.8307 110.39 55.8243 110.214C55.8016 109.582 55.87 108.947 55.9105 108.189C56.3537 108.189 56.7854 108.226 57.2079 108.179C57.7077 108.124 58.2207 108.055 58.689 107.885C59.2106 107.696 59.4931 107.775 59.5713 108.343C59.6613 108.997 59.7627 109.65 59.8304 110.306C59.8649 110.641 59.8364 110.982 59.8364 111.347C58.5804 111.568 57.5022 111.01 56.3161 110.742Z" fill="#6F7B87"/>
<path d="M74.8927 106.182C75.0474 105.26 75.1449 104.392 75.3748 103.562C75.5651 102.875 76.1995 103.108 76.6823 103.149C77.2266 103.195 77.1105 103.639 77.1044 103.988C77.0878 104.94 77.0124 105.894 77.0527 106.843C77.081 107.51 77.2609 108.171 77.373 108.834C75.3136 109.196 74.7562 108.321 74.8898 106.912C74.9104 106.694 74.8927 106.472 74.8927 106.182Z" fill="#6F7B87"/>
<path d="M53.0811 116.059C55.3011 116.349 57.4749 116.634 59.6328 117.011C60.5116 117.165 61.3736 117.471 62.2095 117.795C62.8158 118.03 62.8188 118.156 62.6945 119.006C61.9637 118.806 61.2549 118.566 60.527 118.422C58.6154 118.044 56.6952 117.709 54.7788 117.355C54.2762 117.262 53.768 117.188 53.2744 117.059C52.5505 116.87 52.5096 116.671 53.0811 116.059Z" fill="#6F7B87"/>
<path d="M55.3959 96.1003C54.7191 95.2299 54.0882 94.3926 53.4394 93.5694C53.0393 93.0617 53.1854 92.6725 53.6075 92.26C54.0085 91.8682 54.37 91.6054 54.9187 92.017C56.0691 92.8799 56.992 93.9393 57.6694 95.2004C57.7579 95.3651 57.6846 95.7341 57.5486 95.8817C56.9657 96.5141 56.1924 96.5836 55.3959 96.1003Z" fill="#6F7B87"/>
<path d="M18.0515 90.0416C18.5018 89.0583 19.3943 88.9824 20.2286 88.8549C20.7028 88.7825 21.1971 88.8419 21.6896 88.8419C21.8743 89.6624 22.059 90.4826 22.2633 91.3903C21.1268 91.8862 19.9173 92.2125 18.6461 92.1626C18.404 92.153 18.0409 91.7404 17.9781 91.4591C17.8821 91.0293 17.9989 90.5521 18.0515 90.0416Z" fill="#6F7B87"/>
<path d="M7.42584 98.1624C7.70702 98.505 7.60359 98.7288 7.30576 98.9181C5.77023 99.894 5.77075 99.8948 5.35938 101.466C4.36184 101.328 2.96379 99.7467 3.06204 98.7848C3.09571 98.455 3.27627 98.0235 3.53244 97.8534C4.65493 97.108 6.25228 96.8503 7.42584 98.1624Z" fill="#6F7B87"/>
<path d="M27.3078 141.007C28.2899 141.31 29.212 141.595 30.2829 141.926C30.0783 142.6 29.9293 143.391 29.6006 144.1C29.1424 145.087 27.4121 145.304 26.7159 144.498C26.5335 144.287 26.4002 143.925 26.4339 143.656C26.5336 142.861 26.7158 142.075 26.8985 141.294C26.927 141.172 27.1269 141.089 27.3078 141.007Z" fill="#6F7B87"/>
<path d="M7.06771 82.041C6.94718 83.0681 6.82895 84.0252 6.69645 85.0978C5.789 84.8331 5.02961 84.6116 4.13379 84.3504C4.35439 82.9359 4.5699 81.554 4.78943 80.1464C5.11852 80.1717 5.33557 80.1788 5.55 80.2064C7.07151 80.4019 7.07134 80.4032 7.06771 82.041Z" fill="#6F7B87"/>
<path d="M56.8285 114.486C55.7457 114.247 54.7198 114.03 53.6939 113.813C53.5984 113.793 53.4785 113.8 53.4126 113.744C53.1972 113.562 53.0016 113.356 52.7983 113.159C53.0576 113.01 53.3516 112.693 53.5708 112.739C55.7649 113.192 57.958 113.661 60.1265 114.222C60.9872 114.444 61.7965 114.885 62.6058 115.275C62.8318 115.384 62.9742 115.667 63.155 115.87C63.1079 115.93 63.0608 115.99 63.0137 116.05C60.9709 115.536 58.9282 115.022 56.8285 114.486Z" fill="#6F7B87"/>
<path d="M24.7349 121.353C24.9699 121.346 25.1363 121.346 25.3787 121.346C25.2972 122.091 25.2249 122.788 25.1435 123.484C25.0851 123.983 24.8765 124.26 24.3149 124.053C23.2411 123.656 22.1545 123.292 21.0915 122.869C20.8821 122.785 20.6361 122.507 20.6133 122.297C20.5485 121.699 20.5906 121.091 20.5906 120.207C21.9353 121.112 23.1909 121.738 24.7349 121.353Z" fill="#6F7B87"/>
<path d="M23.6927 95.3143C23.5067 95.5736 23.3454 95.7863 23.186 95.9964C22.5934 95.7155 22.1549 94.7771 22.2295 93.9704C22.3349 92.8297 22.9307 92.0804 24.0312 91.7694C24.7475 91.567 25.4777 91.4137 26.4127 91.1874C26.0999 92.1487 25.854 92.9231 25.5905 93.6915C25.5564 93.7907 25.4362 93.9243 25.3477 93.9309C24.4836 93.9945 24.1758 94.7206 23.6927 95.3143Z" fill="#6F7B87"/>
<path d="M4.07241 74.2043C3.99224 73.5297 4.57631 73.4038 4.90644 73.3187C6.7378 72.8464 8.59143 72.459 10.4422 72.0649C10.7874 71.9914 11.1218 72.0322 11.185 72.5246C11.2489 73.0219 10.8935 73.0747 10.5745 73.1813C9.14928 73.6577 7.72215 74.1286 6.29846 74.6096C6.13939 74.6634 5.98941 74.7566 5.84951 74.8524C4.86081 75.5295 4.59012 75.4392 4.07241 74.2043Z" fill="#6F7B87"/>
<path d="M5.60938 79.6925C5.18107 79.6246 4.80709 79.4737 5.00246 79.0502C5.10835 78.8207 5.52693 78.5653 5.76903 78.5965C7.24085 78.7861 8.70576 79.037 10.1662 79.3045C10.9311 79.4447 11.6843 79.6519 12.4386 79.8452C12.865 79.9545 13.2253 80.1479 13.1331 80.6908C13.0391 81.2445 12.6009 81.1923 12.2211 81.1591C11.8619 81.1277 11.5083 81.024 11.1542 80.9439C9.32622 80.5304 7.49884 80.1142 5.60938 79.6925Z" fill="#6F7B87"/>
<path d="M49.0015 89.9803C49.0292 89.8304 49.0506 89.7347 49.0787 89.6409C49.5608 88.0315 49.7746 87.9629 51.0963 88.9424C51.9715 89.591 52.8638 90.2165 53.8312 90.9119C53.4563 91.342 53.2344 91.7173 52.9071 91.9324C52.6618 92.0937 52.2001 92.195 51.9743 92.0703C50.9943 91.5291 50.0638 90.8979 49.1218 90.2894C49.0541 90.2457 49.0382 90.1219 49.0015 89.9803Z" fill="#6F7B87"/>
<path d="M57.7896 115.152C59.2757 115.564 60.7148 115.927 62.1208 116.39C62.5186 116.521 63.1743 116.639 63.0207 117.465C62.2609 117.26 61.5274 117.099 60.8194 116.863C58.5101 116.092 56.1311 115.73 53.7109 115.587C53.5889 115.58 53.4411 115.613 53.3503 115.556C53.1632 115.438 53.0066 115.272 52.8374 115.126C52.9826 114.97 53.1274 114.68 53.273 114.679C54.2615 114.677 55.2531 114.702 56.2377 114.788C56.7415 114.831 57.233 115.019 57.7896 115.152Z" fill="#6F7B87"/>
<path d="M91.6626 102.607C92.2446 103.84 92.1151 105.103 92.062 106.336C92.028 107.124 91.2729 107.114 90.6317 107.309C90.4634 106.564 90.3184 105.878 90.1521 105.198C90.0023 104.585 89.8615 103.967 89.6589 103.371C89.3459 102.45 89.3597 102.36 90.2936 102.109C90.8176 101.968 91.3703 101.864 91.6626 102.607Z" fill="#6F7B87"/>
<path d="M7.65294 78.3707C7.01218 78.2683 6.42089 78.2217 5.8648 78.0566C5.64239 77.9905 5.49754 77.6633 5.31738 77.4549C5.533 77.2766 5.75049 76.9414 5.96394 76.944C8.27272 76.9715 10.5059 77.4497 12.658 78.267C12.9096 78.3625 13.0302 78.8026 13.2115 79.083C13.164 79.1513 13.1165 79.2196 13.069 79.288C11.2849 78.9849 9.5007 78.6819 7.65294 78.3707Z" fill="#6F7B87"/>
<path d="M62.6663 109.676C62.7901 110.601 62.9055 111.464 63.0548 112.579C62.1522 112.271 61.4426 112.104 60.8148 111.778C60.5649 111.649 60.3878 111.177 60.3656 110.849C60.3051 109.953 60.3448 109.05 60.3448 108.151C62.3375 108.02 62.4949 108.12 62.6663 109.676Z" fill="#6F7B87"/>
<path d="M27.547 145.587C28.1338 145.587 28.6545 145.587 29.1752 145.587C29.2247 145.685 29.2743 145.783 29.3238 145.88C29.0652 146.287 28.8906 146.805 28.5305 147.077C27.7604 147.66 26.9179 148.161 26.0589 148.607C25.517 148.888 25.1357 148.567 25.2364 147.962C25.3919 147.028 25.6013 146.103 25.7911 145.158C26.4158 145.316 26.9483 145.452 27.547 145.587Z" fill="#6F7B87"/>
<path d="M62.1774 107.447C61.277 107.841 60.6518 107.392 60.2199 106.739C59.5722 105.76 59.223 104.647 59.0815 103.499C59.1758 103.438 59.2127 103.395 59.2541 103.39C61.0931 103.174 61.1037 103.172 61.61 104.975C61.834 105.773 62.0052 106.585 62.1774 107.447Z" fill="#6F7B87"/>
<path d="M3.14356 52.9752C2.8923 53.4737 2.72032 53.9753 2.39439 54.3389C1.9688 54.8136 1.66094 54.7017 1.44475 54.1083C1.41974 54.0396 1.38111 53.971 1.3765 53.9006C1.25066 51.9815 1.21004 50.0657 1.5664 48.1293C2.21315 48.6135 3.2821 51.9205 3.14356 52.9752Z" fill="#6F7B87"/>
<path d="M59.614 119.787C57.2771 119.245 54.9949 118.727 52.6219 118.189C52.568 117.839 52.7361 117.57 53.2618 117.648C54.5419 117.836 55.833 117.98 57.0943 118.258C58.7391 118.619 60.3621 119.083 61.987 119.53C62.1732 119.581 62.3113 119.808 62.4717 119.953C62.2733 120.071 62.0557 120.314 61.8797 120.286C61.136 120.172 60.4046 119.977 59.614 119.787Z" fill="#6F7B87"/>
<path d="M7.08795 69.1375C7.82812 69.0439 8.50369 68.9354 9.18346 68.8907C9.53836 68.8674 9.92075 68.8999 10.2512 69.0178C10.4203 69.0781 10.5535 69.371 10.5995 69.5814C10.6189 69.6705 10.3881 69.8982 10.2443 69.9263C8.19781 70.3273 6.14676 70.7049 4.05433 71.096C3.89394 70.5223 4.05563 70.0442 4.58527 69.8479C5.37627 69.5549 6.20971 69.3764 7.08795 69.1375Z" fill="#6F7B87"/>
<path d="M6.75673 99.9844C7.52379 99.3614 8.36637 99.4018 9.29844 99.4681C9.29844 100.433 9.29844 101.37 9.29844 102.38C8.86548 102.38 8.409 102.376 7.9526 102.381C7.31025 102.387 6.71973 102.367 6.34851 101.67C5.97597 100.97 6.37774 100.521 6.75673 99.9844Z" fill="#6F7B87"/>
<path d="M53.2293 107.661C52.1009 107.398 52.109 106.453 52.0444 105.676C52.0137 105.307 52.3603 104.793 52.6853 104.528C53.7998 103.619 54.1032 103.744 54.4668 105.13C54.5595 105.484 54.638 105.842 54.7061 106.201C54.9353 107.411 54.5421 107.816 53.2293 107.661Z" fill="#6F7B87"/>
<path d="M83.4813 108.487C83.5519 108.15 83.6108 107.871 83.71 107.402C83.924 107.674 84.0481 107.794 84.1286 107.94C84.6226 108.829 85.0954 109.731 85.5983 110.616C85.917 111.177 85.8376 111.505 85.2048 111.599C84.3228 111.73 83.4248 111.754 82.4922 111.828C82.8407 110.657 83.1552 109.601 83.4813 108.487Z" fill="#6F7B87"/>
<path d="M15.0894 84.8364C16.3875 85.622 17.6256 86.4011 18.8638 87.1802C18.8315 87.2695 18.7992 87.3588 18.7669 87.4482C17.7944 87.8887 16.7497 88.0245 15.6852 88.0544C15.5701 88.0577 15.3583 87.9346 15.3481 87.8508C15.2247 86.846 15.1309 85.8374 15.0894 84.8364Z" fill="#6F7B87"/>
<path d="M8.41412 71.7804C6.87487 72.1924 5.39467 72.5932 3.86768 73.0067C3.77419 72.3937 3.78103 71.8292 4.3665 71.651C6.37612 71.0394 8.42741 70.6255 10.529 70.5737C10.6473 71.0369 10.5797 71.2787 10.1053 71.3563C9.55352 71.4466 9.01657 71.6276 8.41412 71.7804Z" fill="#6F7B87"/>
<path d="M61.391 54.3599C61.3906 53.6818 61.3629 53.0703 61.3986 52.4624C61.4344 51.8511 61.5697 51.263 62.1778 50.9271C62.6985 51.5636 62.8818 57.0643 62.3369 58.0957C61.7071 56.8699 61.545 55.6502 61.391 54.3599Z" fill="#6F7B87"/>
<path d="M46.414 138.599C46.525 139.274 46.6582 139.897 46.6713 140.521C46.6758 140.736 46.4146 141.085 46.2121 141.139C46.0007 141.196 45.5676 141.039 45.484 140.859C44.9765 139.765 44.5412 138.637 44.0781 137.512C45.678 137.143 45.9284 137.26 46.414 138.599Z" fill="#6F7B87"/>
<path d="M11.0104 73.6652C11.9066 73.8933 11.4773 74.5502 11.6215 75.1759C9.76359 75.3025 7.98002 75.4241 6.19644 75.5457C6.17539 75.474 6.15435 75.4023 6.1333 75.3306C7.55191 74.2886 9.27256 74.0391 11.0104 73.6652Z" fill="#6F7B87"/>
<path d="M58.4189 119.977C59.6495 120.328 60.821 120.667 61.9926 121.006C61.9961 121.111 61.9996 121.216 62.0031 121.321C61.7723 121.418 61.5449 121.588 61.3104 121.598C59.6336 121.673 58.1108 121.093 56.626 120.406C56.4376 120.319 56.3415 120.033 56.2026 119.839C56.4234 119.768 56.6541 119.617 56.8628 119.643C57.3673 119.707 57.8616 119.852 58.4189 119.977Z" fill="#6F7B87"/>
<path d="M17.3517 91.0038C17.3839 91.5096 17.4139 91.9475 17.4551 92.548C16.8186 92.7355 16.1416 92.9349 15.3247 93.1755C15.5276 91.9673 15.6406 90.8779 15.9384 89.8416C16.0048 89.6105 16.7207 89.5661 17.2647 89.396C17.2995 90.028 17.3245 90.4819 17.3517 91.0038Z" fill="#6F7B87"/>
<path d="M7.70584 63.4347C7.90165 63.0973 8.06645 62.804 8.36015 62.2812C9.06238 63.2974 9.6738 64.1821 10.3681 65.1867C9.06183 65.1867 7.96907 65.1867 6.74512 65.1867C7.09914 64.5364 7.38698 64.0076 7.70584 63.4347Z" fill="#6F7B87"/>
<path d="M20.6084 117.257C20.5433 117.653 20.5122 117.998 20.4128 118.323C20.307 118.668 20.285 119.262 19.743 119.057C19.3258 118.899 18.7836 118.492 18.7143 118.119C18.5813 117.401 18.7446 116.629 18.7849 115.882C20.3391 115.957 20.9067 116.336 20.6084 117.257Z" fill="#6F7B87"/>
<path d="M54.2546 108.261C54.5372 108.258 54.7536 108.258 55.0296 108.258C55.0762 108.988 55.1193 109.665 55.162 110.335C53.3228 110.784 52.5116 110.21 52.5481 108.435C53.0862 108.379 53.6373 108.322 54.2546 108.261Z" fill="#6F7B87"/>
<path d="M57.9371 136.49C57.8432 136.1 57.7728 135.765 57.6673 135.441C57.4287 134.708 57.6533 134.225 58.531 133.964C58.8444 135.446 59.1556 136.918 59.4649 138.381C58.7669 138.688 58.4298 138.485 58.2825 137.896C58.1702 137.448 58.0572 136.999 57.9371 136.49Z" fill="#6F7B87"/>
<path d="M12.6409 76.9341C12.5092 77.0612 12.3582 77.2051 12.2335 77.1851C10.7432 76.9451 9.25689 76.6807 7.71582 76.2601C7.92529 76.1647 8.12879 76.0048 8.34524 75.9847C9.46466 75.881 10.5865 75.7711 11.7093 75.7479C12.4007 75.7336 12.4671 76.3793 12.6409 76.9341Z" fill="#6F7B87"/>
<path d="M56.8709 121.95C56.5457 121.673 56.2597 121.432 55.9736 121.191C56.001 121.143 56.0283 121.095 56.0557 121.046C57.813 121.523 59.5702 122 61.36 122.485C61.2665 123.036 60.7936 123.046 60.3773 123.075C59.0852 123.163 57.9418 122.745 56.8709 121.95Z" fill="#6F7B87"/>
<path d="M18.3756 119.466C18.9266 119.593 19.7496 119.631 19.9183 119.983C20.1551 120.477 19.9318 121.208 19.838 121.828C19.8218 121.934 19.4253 122.107 19.2845 122.05C18.7599 121.839 18.0077 121.798 18.1018 120.937C18.1539 120.46 18.2689 119.99 18.3756 119.466Z" fill="#6F7B87"/>
<path d="M10.0812 68.2428C8.36725 68.4871 6.70986 68.7269 5.05247 68.9666C5.01447 68.9058 4.97647 68.845 4.93848 68.7842C5.12288 68.6131 5.27902 68.357 5.49627 68.2848C6.93547 67.8066 8.39581 67.437 9.93168 67.775C10.3585 67.8689 10.3578 67.8721 10.0812 68.2428Z" fill="#6F7B87"/>
<path d="M53.9884 53.0995C54.4295 53.6062 54.3553 53.9742 53.8021 54.2428C53.3494 54.4626 52.8935 54.6757 52.4062 54.9073C52.4062 53.8159 52.4062 52.8174 52.4062 51.8188C52.4854 51.7735 52.5646 51.7281 52.6438 51.6827C53.082 52.1398 53.5202 52.5968 53.9884 53.0995Z" fill="#6F7B87"/>
<path d="M58.6946 141.117C58.686 140.469 58.686 139.888 58.686 139.308C59.1759 139.13 59.4797 139.326 59.5619 139.777C59.7143 140.613 59.8409 141.456 59.9125 142.301C59.9298 142.506 59.6909 142.733 59.5698 142.949C59.3918 142.783 59.1375 142.648 59.0521 142.443C58.8857 142.044 58.814 141.605 58.6946 141.117Z" fill="#6F7B87"/>
<path d="M22.9876 89.3215C23.8271 89.7137 24.6109 90.0847 25.5681 90.538C24.6995 91.0151 23.9647 91.2771 23.1571 91.1516C22.7069 91.0816 22.2793 89.6348 22.5789 89.2931C22.6288 89.2362 22.8108 89.2951 22.9876 89.3215Z" fill="#6F7B87"/>
<path d="M47.6967 87.3917C48.2728 86.9429 48.7573 87.0174 49.2082 87.49C48.7472 88.4786 47.357 89.2372 46.3394 89.0474C46.2341 89.0278 46.07 88.9392 46.0623 88.8686C46.0496 88.7528 46.1079 88.5815 46.1974 88.5102C46.6709 88.1332 47.1635 87.7802 47.6967 87.3917Z" fill="#6F7B87"/>
<path d="M12.5432 84.9593C12.3091 83.99 12.1141 83.0453 11.9748 82.0925C11.9635 82.0152 12.438 81.7457 12.5078 81.7992C12.7754 82.0042 13.1034 82.2777 13.1631 82.575C13.277 83.1417 13.2859 83.7509 13.2075 84.3246C13.1744 84.567 12.8104 84.7641 12.5432 84.9593Z" fill="#6F7B87"/>
<path d="M11.0686 94.7026C10.2575 95.6822 9.85227 96.7757 9.63909 97.9649C9.60415 98.1598 9.37214 98.3193 9.2312 98.4952C9.04756 98.2927 8.7202 98.0963 8.71131 97.8863C8.69472 97.4947 8.76538 97.0308 8.97493 96.7122C9.42245 96.0318 9.96717 95.4122 10.5077 94.7991C10.616 94.6763 10.883 94.6934 11.0686 94.7026Z" fill="#6F7B87"/>
<path d="M47.3283 144.158C46.6472 144.703 46.235 144.567 46.079 143.798C45.9969 143.392 45.9399 142.982 45.8821 142.572C45.8141 142.09 46.0668 141.838 46.5128 141.762C46.9731 141.684 47.1001 141.98 47.1416 142.361C47.2047 142.94 47.2744 143.519 47.3283 144.158Z" fill="#6F7B87"/>
<path d="M39.951 90.5473C39.2519 90.8774 38.6009 91.1813 37.9255 91.4965C37.8029 90.2681 39.9146 89.0057 41.3761 89.4182C41.0681 90.0088 40.4972 90.2234 39.951 90.5473Z" fill="#6F7B87"/>
<path d="M12.6035 86.1527C12.8275 85.9338 13.0469 85.7694 13.4039 85.5018C13.6134 86.6278 13.8143 87.5928 13.9535 88.5666C13.9773 88.7331 13.7373 88.9373 13.6192 89.1241C13.4638 88.9974 13.2103 88.8964 13.1692 88.7398C12.9498 87.9032 12.7836 87.0528 12.6035 86.1527Z" fill="#6F7B87"/>
<path d="M131.783 35.7025C131.847 34.8184 131.605 33.9609 132.025 33.1952C132.096 33.1926 132.168 33.1901 132.24 33.1875C132.445 34.7828 132.65 36.3782 132.854 37.9596C132.126 37.8122 131.842 37.2582 131.783 35.7025Z" fill="#6F7B87"/>
<path d="M14.4223 72.6153C14.7348 72.6963 14.987 72.7726 15.4863 72.9236C14.802 73.3361 14.3127 73.7474 13.7486 73.9429C12.9539 74.2182 12.6083 73.8142 12.6246 72.6106C13.2005 72.6106 13.7812 72.6106 14.4223 72.6153Z" fill="#6F7B87"/>
<path d="M64.0347 110.497C63.9285 109.576 63.8351 108.715 63.7417 107.854C63.831 107.806 63.9202 107.758 64.0095 107.71C64.1665 107.894 64.4093 108.055 64.4651 108.265C64.6697 109.037 64.844 109.82 64.9592 110.609C64.995 110.855 64.8077 111.134 64.7225 111.397C64.5233 111.211 64.3153 111.032 64.1299 110.832C64.0713 110.769 64.0734 110.65 64.0347 110.497Z" fill="#6F7B87"/>
<path d="M132.801 40.1711C132.86 40.7376 132.888 41.2453 132.959 41.7472C133.068 42.5277 133.206 43.3043 133.176 44.1953C132.929 43.7725 132.558 43.3761 132.46 42.921C132.284 42.1038 132.249 41.2522 132.218 40.4126C132.214 40.2972 132.2 39.4422 132.801 40.1711Z" fill="#6F7B87"/>
<path d="M55.0091 120.068C54.3279 120.535 53.7543 120.322 53.2631 119.859C52.9615 119.575 52.9118 119.187 53.4604 119.157C54.0918 119.122 54.73 119.21 55.588 119.257C55.3065 119.656 55.1765 119.84 55.0091 120.068Z" fill="#6F7B87"/>
<path d="M59.1807 144.468C59.2016 144.214 59.1735 143.999 59.2538 143.839C59.4174 143.513 59.9351 143.511 60.0964 143.81C60.4336 144.434 60.0184 145.639 59.1807 146.097C59.1807 145.521 59.1807 145.027 59.1807 144.468Z" fill="#6F7B87"/>
<path d="M14.438 80.0167C14.4866 79.668 14.5283 79.384 14.5722 79.0853C15.5438 79.5384 15.4766 81.0928 14.2881 81.917C14.3358 81.3051 14.3835 80.6933 14.438 80.0167Z" fill="#6F7B87"/>
<path d="M15.3134 77.4107C15.8344 77.1533 16.3078 76.929 16.7812 76.7046C16.8462 76.7561 16.9113 76.8076 16.9763 76.8591C16.6137 77.5202 16.251 78.1814 15.8214 78.9646C15.397 78.4018 14.8545 78.0994 15.3134 77.4107Z" fill="#6F7B87"/>
<path d="M54.0902 121.802C53.6461 122.037 53.1829 122.221 52.7197 122.406C52.547 121.933 52.3743 121.461 52.2017 120.989C52.2863 120.918 52.3709 120.848 52.4556 120.778C52.9941 121.102 53.5326 121.427 54.0902 121.802Z" fill="#6F7B87"/>
<path d="M7.03452 66.7175C7.96645 66.4703 8.83538 66.4426 9.69623 66.6786C9.70109 66.7566 9.70594 66.8346 9.71079 66.9126C8.59598 67.0509 7.48117 67.1892 6.36636 67.3275C6.34027 67.2602 6.31418 67.1929 6.28809 67.1257C6.51794 66.9959 6.7478 66.866 7.03452 66.7175Z" fill="#6F7B87"/>
<path d="M58.1255 124.106C57.6434 123.74 57.2133 123.394 56.7832 123.048C56.8456 122.955 56.9079 122.862 56.9702 122.769C57.8336 123.145 58.6969 123.522 59.5603 123.898C59.554 123.974 59.5476 124.05 59.5413 124.126C59.0867 124.126 58.6321 124.126 58.1255 124.106Z" fill="#6F7B87"/>
<path d="M47.5661 145.586C47.6009 146.031 47.6186 146.419 47.6223 146.808C47.6231 146.896 47.5757 146.985 47.5521 147.068C46.848 147.008 46.8239 146.968 46.4966 145.348C46.8868 145.174 47.2543 145.058 47.5661 145.586Z" fill="#6F7B87"/>
<path d="M80.386 106.018C80.8696 105.557 81.2613 105.764 81.5067 106.167C81.641 106.387 81.6458 106.773 81.5469 107.019C81.4832 107.177 81.0652 107.349 80.9129 107.28C80.6685 107.169 80.4716 106.885 80.3352 106.631C80.2571 106.486 80.3384 106.255 80.386 106.018Z" fill="#6F7B87"/>
<path d="M86.9274 106.684C86.5767 106.676 86.0829 106.721 85.9979 106.555C85.7795 106.13 85.8708 105.655 86.3659 105.375C87.319 105.675 87.4112 105.866 86.9274 106.684Z" fill="#6F7B87"/>
<path d="M135.971 49.9191C135.88 49.702 135.821 49.5262 135.719 49.2251C136.669 49.931 137.505 50.5519 138.367 51.1922C137.491 51.23 136.607 50.7605 135.971 49.9191Z" fill="#6F7B87"/>
<path d="M28.6681 76.4817C28.57 76.4929 28.5047 76.4513 28.4395 76.4097C28.5266 76.4161 28.6138 76.4225 28.6681 76.4817Z" fill="#6F7B87"/>
<path d="M30.1387 101.609C30.1508 101.56 30.1842 101.532 30.2175 101.505C30.2299 101.545 30.2423 101.585 30.2285 101.649C30.2022 101.673 30.1598 101.63 30.1387 101.609Z" fill="#6F7B87"/>
</svg>
