<svg width="87" height="150" viewBox="0 0 87 150" fill="none" xmlns="http://www.w3.org/2000/svg">
<path fill-rule="evenodd" clip-rule="evenodd" d="M59.4289 0L59.8751 0.0892326L60.8566 0.713861L62.0167 1.87388L62.7305 3.30161V4.72933L62.3736 5.17549L62.4628 5.80012L62.6413 6.06782V6.87091L61.749 10.2617V10.7971L63.0874 12.1356L63.3551 12.0464L64.069 11.1541L65.1398 9.99405L65.9429 9.01249L66.2998 8.92326L66.9245 10.2617L68.4414 13.4741L69.5122 15.7942L70.1368 17.0434V17.4896L68.4414 19.185L67.8168 19.8989L67.1921 20.5235L66.5675 21.2374L65.3183 22.4866L64.6936 23.2005L64.5152 23.4682L64.6936 24.2713L66.2106 28.5544L66.3891 29.2683L65.4967 30.8745L64.4259 32.6591L64.5152 33.2838L65.3183 35.2469L65.586 35.7823L65.3183 34.533L64.9613 33.1945L65.0506 32.7484L65.7644 31.7668L66.9245 30.1606L67.6383 29.2683V28.6437L66.3891 24.2713V23.6466L67.5491 22.6651L68.7983 21.5943L69.6907 20.8804L71.2076 19.6312L72.3676 18.6496L72.8138 18.2927L72.7246 17.8465L71.743 15.0803L70.7615 12.4033L70.8507 12.0464L71.9215 11.3325L73.7061 10.0833L75.9369 8.65556L77.2754 7.76324L77.9001 7.40631L78.1678 7.49554L78.8816 10.7079L80.6663 18.2927L81.2017 20.4343L81.2909 20.9697L85.3956 16.865L85.7525 16.7757L86.1987 23.5574V26.6805L84.5925 44.9732L83.5217 57.3766L82.094 73.6169L81.8263 76.6508L81.4694 78.7924L81.0232 80.4878L80.4878 82.094L79.6847 83.8786L79.1493 84.9494L78.0785 86.7341L76.9185 88.251L76.1154 89.1434L75.4908 89.8572L74.3307 91.0173L73.3492 91.8203L71.6538 93.0696L69.7799 94.1404L68.3522 94.8542L66.4783 95.5681L64.6936 96.1035L62.3736 96.5497L60.3212 96.7281H57.1981L55.4134 96.6389L55.1457 96.5497L56.0381 98.1559L57.1089 99.8513L57.912 100.922L58.8935 102.082L59.8751 103.153L61.1243 104.045L62.4628 104.759L63.8013 105.205L64.7829 105.384L65.9429 105.294L67.3706 104.848L69.423 103.778L70.6722 103.064L72.1892 102.528L74.1523 102.082L75.6692 101.904H77.8108L79.1493 102.082L80.3093 102.439L81.0232 102.885L81.3801 103.331L81.7371 104.402L81.8263 104.848V105.473L81.2017 106.187L81.0232 106.276H78.6139L77.1862 106.544L75.6692 107.168L75.4908 107.525L75.9369 107.436L77.097 106.99L78.1678 106.722L78.7924 106.633H80.577L81.2909 106.811L81.9155 107.347L82.1832 107.971V109.578L81.7371 110.47L81.2909 110.827L81.1124 110.916H79.5062L76.1154 110.738V111.184L77.8108 111.273L79.5062 111.63L80.577 112.076L81.2909 112.612L81.6478 113.236L81.7371 114.128L81.3801 115.199L80.8447 115.824L80.1309 115.913L78.7031 115.199L77.0077 114.396L75.9369 114.128L76.1154 114.485L77.4539 115.11L78.3462 115.645L79.2385 116.449L79.7739 117.162L79.6847 117.787L79.3278 118.233L78.7031 118.501H77.8108L76.9185 118.144L75.7585 117.252L74.6877 116.27L74.2415 116.002L72.903 115.735H68.0845L63.8905 115.913H62.8198L61.749 115.645L59.9643 114.932L57.3766 113.682L55.6811 112.79L54.4319 112.076L53.6288 111.541V111.362L53.2719 111.184L52.558 110.47L51.2195 108.685L49.6133 106.276L48.9887 105.294L49.3456 106.187L50.1487 107.704L50.9518 108.953L51.8441 110.202L52.8257 111.273L53.1826 111.719L53.0042 113.415L52.8257 115.289L52.7365 117.162V120.732L53.0934 122.695L53.3611 124.033L53.5396 124.658L53.2719 122.784L53.0042 120.642V119.661L53.1826 119.482L53.6288 119.572L54.1642 120.286L55.3242 122.07L55.9488 123.319L56.4842 124.836L57.1089 127.335L57.912 130.726L58.9827 133.938L60.232 137.597L60.7674 139.024L61.392 139.917L62.3736 140.809L63.0874 141.434L64.7829 143.129L65.4075 144.111L65.6752 145.003V145.717L65.229 147.769L64.7829 148.661L64.2475 149.286L63.3551 149.732L62.2844 150H58.5366L48.721 149.286L45.1517 149.018L43.8132 148.84L42.7424 148.305L42.3855 147.769L42.1178 146.966V145.985L42.4747 144.735L43.1886 142.951L43.8132 141.344L44.3486 139.471L44.7948 137.15L44.9732 135.187V132.6L44.7948 131.172L44.1701 129.477L42.9209 126.889L41.6716 123.944L41.4932 123.855L41.9393 125.193L42.2962 126.621L42.207 127.424L41.8501 128.495L41.2255 129.566L40.4224 130.547L39.53 131.35L38.37 132.243L36.9423 133.314L36.3177 133.938L35.6038 135.098L34.8899 136.526L34.3545 138.043L34.0869 139.56L34.1761 140.631L34.533 141.255L35.2469 141.969L35.9607 142.594L36.5854 143.486L36.8531 144.378L36.7638 145.806L36.4961 146.698L35.9607 147.501L35.5146 147.948L34.6222 148.572L33.6407 148.84L30.7852 149.018L28.6437 149.108H20.6127L17.3111 148.929L14.9911 148.661L13.2957 148.215L12.7603 147.858L12.3141 146.966L12.1356 146.163L12.2249 145.003L12.671 143.843L13.2064 143.129L14.0988 142.415L15.9726 141.344L17.4896 140.631L18.9173 139.738L20.0773 138.667L20.7912 137.686L21.4158 136.258L21.6835 135.277L22.0405 132.778L22.5758 130.993L23.2005 129.477L24.182 127.692L25.0744 126.353L25.9667 125.104L27.0375 123.676L28.019 122.516L28.7329 121.624L29.536 120.732L30.3391 119.75L31.5883 118.233L31.9453 117.965L32.3022 118.055L32.4807 118.947L32.6591 121.535L32.7484 124.658L32.9268 123.855L33.0161 123.052V119.839L32.7484 117.965L32.3022 116.181L31.6776 114.753L30.9637 113.415L29.7145 111.362L29.0006 110.202L29.0898 109.667L30.2499 107.793L30.9637 106.544L31.6776 105.116L31.9453 104.491L29.8929 107.525L29.0006 108.775L28.1975 109.756L26.9482 110.559L25.9667 111.005L25.6098 111.095H23.5574L22.5758 110.738L21.6835 110.202L20.5235 109.31L18.7388 108.15L17.1327 107.436L15.7049 107.079H14.8126L13.3849 107.436L10.7971 108.239L9.63712 108.418H8.38786L6.42475 108.15L4.90779 107.704L3.74777 107.079L1.24926 105.116L0.713861 104.491L0.535396 104.045V103.421L0.803093 102.796L1.16002 102.439L1.78465 102.528L3.30161 103.688L3.48007 103.778L3.03391 103.242L2.05235 102.439L1.51695 101.993L0.535396 100.654L0.0892326 99.6728L0 99.3159V98.3343L0.446163 97.442L0.803093 96.9958L1.42772 96.9066L2.49851 98.1559L3.48007 99.2267L4.46163 100.03L5.71089 100.922L6.15705 101.011V100.654L5.71089 100.476L4.28316 99.4051L2.94468 98.1559L1.96312 96.9958L1.33849 96.1035L1.42772 95.5681L2.05235 94.5865L3.12314 93.5158H3.48007L4.19393 94.5865L4.99703 95.5681L5.97858 96.5497L7.13861 97.3528L8.38786 98.0666L9.19096 98.4236H9.54789L9.36942 98.0666L7.674 97.2635L6.51398 96.4604L5.62165 95.6573L4.81856 94.8542L4.01547 93.6942L3.92623 93.1588L4.3724 92.8019L5.26472 92.3557L6.24628 92.088L7.40631 91.9988L8.92326 92.3557L9.90482 92.8911L11.0648 93.7835L11.6002 94.2296L12.7603 95.3896L13.4741 96.0143L14.7234 97.0851L16.1511 98.1559L17.7573 99.1374L18.8281 99.762L21.1481 100.744L22.1297 101.011H22.9328L23.9143 100.744L24.8067 100.208L25.4313 99.5836L26.2344 98.3343L26.859 96.9958L27.3944 95.3004L27.5729 94.765L25.4313 94.6758L23.022 94.4081L20.2558 93.8727L17.8465 93.1588L16.4188 92.6234L14.188 91.5527L12.7603 90.7495L11.8679 90.1249L10.4402 89.0541V88.8757L10.0833 88.6972L8.92326 87.5372L8.29863 86.8233L7.22784 85.3064L6.33551 83.7894L5.53242 82.0048L4.81856 79.6847L4.46163 77.8108L4.01547 73.9738L3.65854 69.3337L3.39084 64.3367L3.12314 57.0196L3.03391 41.7609V37.9239L3.12314 31.4991L3.30161 26.0559L3.65854 26.1452L5.26472 27.0375L7.85247 28.5544L10.0833 29.8037L10.7971 30.2499L11.1541 30.1606L11.9572 29.2683L12.5818 28.5544L13.5634 27.4836L14.3664 26.5021L15.4372 25.3421L16.2403 24.3605L17.3111 23.2005L17.9358 22.4866L18.7388 21.5943L19.0958 21.1481L19.5419 21.2374L20.6127 22.0405L25.699 25.7882L28.1975 27.6621L28.2867 27.7513L28.4652 31.5883L28.5544 33.9084L29.0898 34.9792L30.0714 36.5854L30.8745 37.8346L30.7852 38.4593L30.0714 40.1547V40.5116L30.9637 38.9054L31.4099 38.0131V37.4777L30.3391 35.5146L29.4468 33.8192V33.0161L30.7852 22.3974L31.856 14.0095L32.3022 11.1541L32.4807 10.6187L33.1053 10.0833L34.8899 8.83403L37.1208 7.31707L38.5485 6.33551L39.2623 5.80012L39.6193 5.71089L40.6901 6.69244L41.4039 7.31707L42.4747 8.29863L43.1886 8.92326L44.2594 9.90482L44.884 10.4402V10.6187L45.5979 9.99405L45.9548 9.54789H46.1333L46.3117 9.19096L46.9363 8.56633L47.0256 8.38786H47.204L47.3825 8.03093L48.6318 6.78168L49.2564 6.06782L52.1118 3.03391L53.2719 1.87388L53.8073 2.32005L54.4319 3.03391L55.6811 4.28316L56.3058 4.99703L57.3766 6.06782L58.0012 6.78168L58.9827 7.76324L59.6074 8.4771L60.232 9.10172V9.28019H60.4105L60.8566 9.81559L61.0351 9.90482L61.2136 9.01249L62.0167 6.51398L61.9274 5.88935L61.5705 5.17549L60.8566 4.6401L60.6782 4.3724L61.3028 4.55086L60.7674 3.21237L60.1428 1.96312L60.0535 1.16002L60.3212 1.42772L60.7674 2.32005L61.5705 3.65854L61.8382 4.3724L62.0167 4.99703L62.2844 4.72933L62.4628 4.28316V3.48007L61.8382 2.23081L60.9459 1.24926L59.7858 0.35693L59.6966 0.624628L59.6074 1.07079V3.03391L59.9643 4.01547L60.4997 4.90779L61.3028 5.35396L61.6597 5.53242V5.62165H61.1243L60.4105 5.17549L59.7858 4.46163L59.3397 3.48007L59.2504 3.12314V1.33849L59.4289 0ZM25.6095 59.5181H26.5911L27.9296 59.6965L29.2681 60.0535L30.6958 60.6781L31.6774 61.3027L32.6589 62.1058L33.3728 62.8197L34.3543 64.1582L35.1574 65.8536L35.6036 67.549L35.6928 68.0844V70.3152L35.2467 72.1891L34.3543 74.063L33.5512 75.223L32.1235 76.6507L30.8743 77.4538L29.625 78.0784L28.5542 78.4354L27.2157 78.7031L26.5019 78.7923H25.6095L23.9141 78.5246L22.3079 77.9892L20.9694 77.2754L19.9879 76.5615L19.0063 75.6692L18.0248 74.3307L17.2217 72.8137L16.7755 71.4752L16.5078 69.6013V68.4413L16.6863 67.1921L17.1324 65.6751L17.8463 64.2474L18.5602 63.1766L19.5417 62.1058L20.5233 61.3027L21.8618 60.4996L23.111 59.9642L24.5387 59.6073L25.6095 59.5181ZM59.0722 61.749H56.8414L55.8598 61.9275L54.4321 62.3737L53.0044 63.0875L51.7551 63.9798L50.7735 64.9614L49.792 66.2107L49.0781 67.6384L48.632 68.9769L48.3643 70.4938V72.1892L48.4535 72.9031L48.8104 74.3308L49.3458 75.5801L50.0597 76.8293L50.952 77.9894H51.1305V78.1678L51.6659 78.614L52.8259 79.5063L54.2536 80.2202L55.5921 80.6663L56.9306 80.934H58.8045L60.2322 80.6663L61.5707 80.2202L62.9984 79.5063L64.2477 78.614L65.0508 77.8109L65.8539 76.8293L66.6569 75.4016L67.2816 73.7062L67.5493 72.2785V70.5831L67.2816 68.9769L66.8354 67.6384L66.0323 66.1214L65.3185 65.1399L64.3369 64.1583L63.1769 63.266L61.6599 62.4629L60.4107 62.0167L59.0722 61.749Z" fill="#052542" fill-opacity="0.5"/>
</svg>
