<svg width="87" height="150" viewBox="0 0 87 150" fill="none" xmlns="http://www.w3.org/2000/svg">
<path fill-rule="evenodd" clip-rule="evenodd" d="M58.7009 0L61.7081 0.120289L63.8733 0.481155L68.324 1.56375L71.4515 2.28549L73.1355 2.88693L74.6993 3.72895L76.6239 5.17241L77.8268 6.13472L79.3905 7.33761L80.5934 8.42021L81.4354 9.26223L82.3978 10.4651L83.2398 11.9086L83.4804 12.7506V14.9158L83.1195 16.5998L82.2775 17.923L81.1949 18.8853L79.5108 19.8476L78.0674 20.3288H76.9848L76.7442 20.8099L76.0225 22.0128L75.1804 22.8549L74.6993 22.9751L74.3384 25.5012L72.895 31.8765L71.5718 38.6127L70.4892 43.4242L68.5646 49.9198L67.6022 52.927L65.6776 60.8661L64.7153 65.437L63.8733 69.5269L62.3095 76.3833L60.9864 83.6006L60.6255 86.0064V87.931L61.8284 90.818L62.3095 92.3817L63.0313 92.6223L71.8123 94.186L76.0225 95.1484L79.7514 96.3512L80.9543 97.3136L83.6006 99.9599L84.563 100.802L85.6455 101.885L86.247 102.366L86.3673 103.208L85.2847 111.628L83.6006 121.251L82.7586 125.702L81.676 130.393L81.3152 131.836L80.4731 132.318L77.105 133.881L74.6993 134.964L72.7747 135.926H71.8123L69.6472 135.445L62.069 134.002L56.7763 133.039L56.2951 132.919H55.4531L56.7763 134.002L58.2197 135.445L59.182 136.287L59.6632 136.648L64.9559 136.889L65.9182 137.249L67.1211 138.212L68.324 139.294L70.1283 140.978L71.2109 141.7L73.1355 142.181L75.0601 143.144L76.7442 144.106L79.15 145.79L81.3152 147.354L82.8789 148.557L83.1195 148.797L82.9992 149.399L82.518 150L82.0369 149.88L79.3905 148.075L77.3456 146.632L75.5413 145.429L73.737 144.346L72.4138 143.745L70.3689 143.264L69.6472 142.783L68.324 141.58L67.3617 140.738L66.3994 139.775L65.0762 138.813L64.8356 138.693L63.1516 138.573H61.4675L61.5878 138.933L62.069 139.174L65.437 142.542L65.9182 143.384L65.7979 143.625H65.5573L65.437 143.986L64.7153 144.106L63.5124 143.023L56.7763 136.287L55.814 135.445L54.2502 134.122L53.0473 133.28L51.7241 132.799L45.83 131.596L43.9054 131.235L43.0634 130.513L41.8605 128.468L40.2967 125.822L39.6953 124.258L39.3344 123.176L39.2141 123.055L35.9663 123.176H33.5605L32.8388 122.334H27.7867L27.1852 121.371L26.4635 119.928L25.7418 118.725L25.3809 118.244L19.7273 118.123H15.6375L5.65357 118.244H0.240577L0 118.123V116.8L8.5405 116.56L17.081 116.439L17.2013 115.357L17.923 111.147L19.3665 103.929L20.2085 99.9599L21.0505 95.0281L21.8925 90.4571L22.1331 89.6151L23.0954 89.1339L26.3432 87.931L29.2302 87.089L31.2751 86.6079L32.3577 86.7281L36.0866 87.4499L42.3416 88.8933L47.1532 89.8557L48.5966 89.9759L49.6792 88.8933L50.7618 87.5702L51.7241 86.3673L51.8444 85.8861L52.085 82.518L52.5662 78.4282L54.0096 71.5718L55.9342 63.8733L57.498 57.7386L58.7009 53.2879L59.9038 48.1155L60.9864 42.8228L62.069 38.4924L63.5124 32.4779L65.3168 25.7418L66.1588 22.3737L66.5196 21.4114L66.6399 20.9302L66.1588 19.8476L65.7979 18.8853L64.2342 19.0056L61.3472 19.4868L58.34 20.3288L56.656 20.8099L54.9719 21.1708L51.243 21.652L47.514 22.0128H43.4242L41.1387 21.4114L39.9358 20.8099L38.8532 19.8476L37.7706 18.4042L36.9286 16.4796L36.4475 14.7955L36.3272 13.5926L36.5678 11.5477L37.1692 10.1042L38.2518 8.17963L39.2141 6.85646L40.8982 5.17241L42.3416 4.08982L44.0257 3.24779L47.0329 2.1652L49.9198 1.32318L53.0473 0.721732L57.0168 0.120289L58.7009 0ZM29.4703 92.7426L30.7935 92.8629L33.6804 93.4644L38.0108 94.1861L41.4992 95.0281L41.7397 95.2687L42.1006 96.3513L42.7021 97.3136L44.8673 98.5165L47.273 99.4788L52.8063 100.922L56.0541 101.403H59.1816L60.6251 100.802L62.1888 99.4788L62.4294 99.2382L63.6323 99.3585L67.4815 100.201L72.1728 101.283L76.9843 102.486L78.5481 102.967L78.6684 103.087L78.5481 105.012L77.8264 109.102L75.9017 117.642L74.6988 122.695L73.2554 129.19L73.1351 129.431L71.5713 129.19L67.4815 128.348L61.7077 127.145L53.0469 125.702L47.5136 124.98L41.86 124.379L41.4992 124.258L40.5369 121.973L39.9354 121.492H37.7702L34.2818 121.612L33.6804 120.89L33.4398 120.77H28.8689L28.2674 119.808L26.9442 117.642L26.3428 116.921L25.3805 116.439L25.5008 115.477L26.3428 111.027L27.0645 106.816L28.1471 102.005L29.2297 93.5846L29.4703 92.7426ZM66.3989 6.61592H57.0164L55.573 6.73621L53.0469 7.09708L50.2803 7.81881L48.4759 8.54054L46.7919 9.38256L44.9876 10.7057L43.6644 12.1492L43.0629 13.3521V14.555L43.1832 15.0361L43.5441 15.6376L44.2658 16.4796L44.9876 16.9607L46.6716 17.3216H50.2803L51.1223 17.2013L52.9266 16.7202L57.1367 15.397L60.7454 14.6753H62.1888L64.354 14.7956H65.9178L66.0381 14.6753L66.5192 12.9912L66.8801 12.3898H68.3236L72.0525 12.9912L76.3829 13.8332L78.1872 14.3144L78.5481 15.397H78.909L79.751 14.4347L79.8713 13.713L79.5104 12.9912L78.4278 11.3072L77.4655 10.2246L76.2626 9.14198L74.9394 8.42025L72.654 7.57823L69.5265 6.8565L66.3989 6.61592ZM57.1367 1.32319H61.4671L63.7526 1.68406L67.4816 2.64637L70.9699 3.3681L72.4134 3.84925L74.2177 4.81156L76.3829 6.4956L78.3075 8.05936L79.5104 9.02167L80.8336 10.3448L81.7959 11.668L82.2771 12.8709V15.0361L81.7959 16.5999L80.9539 17.5622L79.6307 18.4042L78.067 19.1259L77.5858 19.0056L78.067 17.081L78.4278 16.7201L79.5104 16.239L80.2322 15.6375L80.7133 14.9158L80.8336 14.5549V13.4723L80.3525 12.2695L79.2699 10.5854L77.8264 8.90138L76.2626 7.81878L74.338 6.97676L70.7294 6.01445L67.9627 5.65358L66.2787 5.53329H57.6179L54.2498 5.89416L51.1223 6.4956L49.1977 7.09705L47.2731 7.93907L46.1905 8.54051L44.5064 9.7434L43.063 11.0666L42.4615 12.0289L42.1007 13.1115V14.9158L42.5818 16.1187L43.063 16.8404L44.0253 17.5622L45.1079 18.0433L47.0325 18.4042L49.0774 18.5245L51.002 18.2839L53.7687 17.5622L57.3773 16.4796L60.3845 15.8781H64.2338L65.7975 15.9984V17.4419L65.0758 17.6825L61.3468 18.2839L58.7005 19.0056L56.415 19.7274L54.0092 20.2085L49.5586 20.6897L46.5513 20.9302H44.0253L42.4615 20.6897L41.2586 20.3288L40.176 19.4868L39.334 18.6448L38.6123 17.4419L38.0108 16.1187L37.5297 14.0738V13.1115L37.8906 11.4274L38.3717 10.3448L39.0934 9.02167L40.176 7.5782L41.7398 6.01445L43.063 5.05214L45.3484 3.96954L48.5962 2.88694L51.9643 2.16521L56.0541 1.44348L57.1367 1.32319ZM33.9211 88.292L32.4776 88.1717L31.6356 89.0138L30.7936 89.9761L29.711 91.0587L29.8313 91.5398L32.3573 92.1413L35.966 92.7427L39.3341 93.3441L46.0702 94.9079L55.4528 96.5919L62.7904 98.0354L68.5642 99.3586L73.8569 100.561L77.7062 101.524L78.9091 101.764V100.922L78.4279 97.5543L78.1873 97.0731L76.383 96.4716L71.5714 95.3891L68.8048 94.9079L67.0005 94.7876L66.8802 96.8325L66.7599 97.1934L65.7976 97.3137V94.7876L65.557 94.4267L64.715 94.1862L58.5803 93.1036L53.7687 92.3818L43.7848 90.4572L43.1833 90.5775L42.4616 92.3818L41.7399 92.2615L41.6196 91.6601L42.1007 90.4572V90.0964L38.6124 89.2543L33.9211 88.292ZM79.9916 103.328H81.1945L84.9234 103.689V105.132L84.322 110.185L83.1191 117.282L82.0365 123.176L81.1945 127.506L80.3524 130.994L79.1496 130.754L74.4583 129.792L74.338 129.19L75.5409 123.657L77.3452 116.199L78.4278 111.147L79.2699 107.298L79.8713 103.689L79.9916 103.328ZM27.4254 91.9006L23.095 91.4194L22.8545 91.9006L22.253 95.0281L21.411 99.7193L19.0052 111.748L18.4038 115.116L18.2835 116.439L18.7646 116.56H24.1776L24.2979 116.439L24.4182 115.477L24.8994 113.071L25.982 106.696L26.7037 103.448L27.3051 100.682L28.0269 94.5469L28.2675 92.1411L27.4254 91.9006ZM42.2209 125.461L45.8296 125.822L52.686 126.784L61.4671 128.228L66.3989 129.19L70.7293 130.152L72.7742 130.634L72.6539 131.957L72.0525 134.603L71.2105 134.483L63.1511 132.919L56.6555 131.836L52.9266 131.235L49.7991 130.754L46.1904 130.032L44.6267 129.671L43.9049 128.829L42.4615 126.303L42.2209 125.942V125.461ZM69.1657 13.5925L67.4816 13.4723L67.3614 13.7128L67.0005 16.3592V17.8027L67.2411 19.4867L67.6019 20.449L67.9628 20.8099L69.7671 21.1707L72.6541 21.6519L74.5787 21.7722L75.4207 20.8099L76.5033 18.5244L77.225 15.9983L77.3453 15.2766L77.1047 15.1563L73.4961 14.3143L69.1657 13.5925ZM42.8224 95.5093L44.1456 95.6295L54.0093 97.4339L60.6251 98.757L60.986 99.1179L60.144 99.8396L59.0614 100.321L57.4976 100.441L54.9716 100.201L52.2049 99.7194L47.5137 98.3962L45.5891 97.6745L43.905 96.7121L42.9427 95.9904L42.8224 95.5093ZM57.1367 87.6905L52.8063 87.2094L52.4455 87.5702L51.1223 89.0137L50.8817 89.4949H50.6411V89.7354H50.4006L49.9194 90.2166L50.2803 90.5775L53.5281 91.1789L59.1816 92.1412L61.1063 92.3818L60.7454 91.4195L59.5425 88.292L59.0614 87.9311L57.1367 87.6905ZM57.8585 61.5878L58.46 61.8283L59.6629 62.6704L61.3469 63.2718L62.5498 63.753L63.5121 64.4747V65.5573L62.7904 68.9254L62.6701 69.4065L61.9483 69.1659L58.3397 67.3616L57.7382 66.6399L56.8962 65.437L57.0165 64.4747L57.7382 61.708L57.8585 61.5878ZM62.9107 42.3417L62.4295 42.1012L61.9483 44.2664L61.7078 45.9504L61.9483 46.4316L62.6701 47.2736L63.9932 48.3562L66.5193 49.5591L67.241 49.7996L67.6019 48.8373L68.4439 45.9504L68.3236 45.4692L67.0005 44.5069L63.873 43.0635L62.9107 42.3417ZM63.873 35.8461L64.4744 35.9664L65.557 36.6881L68.0831 37.7707L69.5266 38.8533L70.128 39.3344L70.0077 40.2968L69.286 43.0634L69.1657 43.304L68.6845 43.1837L67.6019 42.4619L65.9179 41.7402L64.4744 41.0185L63.7527 40.1765L63.3918 39.2142L63.5121 37.6504L63.873 35.8461ZM55.3324 75.5413L54.6107 74.9398L54.4904 75.0601L54.0093 77.3456V78.4282L54.3701 79.0297L55.0919 79.992L56.5353 80.834L58.7005 82.0369L59.302 82.518L59.9034 82.7586L60.0237 82.3977L60.5048 79.5108L60.3846 78.7891L59.9034 78.5485V78.3079L59.4222 77.8268L55.8136 76.0224L55.3324 75.5413ZM59.6628 54.9719L62.67 56.1748L64.1135 57.2574L64.9555 58.2197L64.3541 61.227L63.9932 61.9487L62.9106 61.4675L61.1063 60.8661L59.9034 59.7835L58.8208 58.4603L58.9411 57.3777L59.4222 55.3328L59.6628 54.9719ZM56.2947 68.324H56.0541L55.4527 70.8501V71.8124L55.9338 72.5341L56.7758 73.6167L58.7005 74.6993L60.7454 76.0225H61.1062L61.7077 73.3762L61.828 72.053L61.1062 71.4515L59.6628 70.6095L57.7382 69.6472L56.8961 68.9255L56.2947 68.324ZM65.557 29.8316L66.1585 29.9519L68.4439 30.9142L70.0077 32.1171L70.8497 33.0794L71.2106 33.9214L70.7294 36.8084L70.128 36.5678L69.1657 35.7258L67.2411 34.8838L66.1585 34.0417L65.1961 33.0794L64.9556 32.7186L65.0759 31.5157L65.557 29.8316ZM61.5875 48.9575L60.986 48.5966L60.5049 50.8821V51.9647L61.3469 53.0473L61.9483 53.5285L63.3918 54.1299L64.3541 54.6111L65.3164 55.3328H65.6773L66.0382 54.2502L66.5193 52.085L65.9179 51.4836L65.1961 51.0024L63.2715 50.0401L61.5875 48.9575ZM53.4078 81.5556L53.8889 81.7962L55.4527 82.7585L57.257 83.8411L58.941 85.2846L59.4222 85.6455L59.5425 86.6078L59.4222 86.7281L57.7382 86.6078L53.6483 86.1266L53.0469 85.886L53.2875 81.7962L53.4078 81.5556ZM67.4816 25.1403L66.8801 24.8998L66.7598 25.1403L66.399 27.1852L67.241 27.907L69.2859 28.8693L70.6091 29.8316L71.0902 30.0722V30.3127L71.4511 30.6736H71.812L72.2931 28.8693V28.0273L71.0902 26.9447L70.1279 26.2229L68.4439 25.6215L67.4816 25.1403ZM79.6307 98.0352L80.1119 98.2758L81.0742 99.1178L82.1568 100.2L82.3974 100.321V100.561L82.8785 100.802L84.4423 102.366V102.486L82.8785 102.366L80.3525 102.125L80.1119 101.884L79.6307 98.0352ZM30.7935 88.2919V87.9311L26.3429 89.134L24.0574 89.976L23.5762 90.3369L25.3806 90.5774L28.5081 90.818L29.2298 89.8557L30.7935 88.2919ZM67.9627 22.0128L68.8047 22.1331L71.2105 22.6142L73.1351 22.8548L73.3757 22.9751V23.8171L73.0148 25.6215L72.7743 25.7417L71.812 24.8997L70.6091 24.178L68.6845 22.9751L67.9627 22.3737V22.0128ZM75.1801 131.115L73.9772 130.994L73.6164 132.558L73.3758 134.122H73.7366L75.9018 133.039L78.3076 132.077L78.1873 131.716L75.1801 131.115ZM64.4743 33.5606L64.9555 33.8012L65.9178 34.7635L68.083 35.9664L69.4062 36.8084L70.4887 37.7707V38.3722H70.0076L68.3235 37.1693L65.9178 36.0867L64.4743 35.1244L64.2337 34.8838L64.354 33.9215L64.4743 33.5606ZM55.5731 73.2559L55.0919 72.7747L54.9716 73.0153V74.0979L55.2122 74.4588L56.6557 75.7819L59.302 76.9848L60.2643 77.7066L60.7455 77.8268L60.8658 77.3457L60.5049 76.7442L58.46 75.3008L56.4151 74.2182L55.5731 73.2559ZM58.3397 59.3024L58.8208 59.543L59.9034 60.7459L60.986 61.4676L62.9106 62.1894L63.873 62.6705V63.3923L63.5121 63.6328L62.3092 62.9111L60.2643 62.1894L59.0614 61.4676L58.2194 60.6256L58.0991 60.2648L58.3397 59.3024ZM57.3774 67.2415L56.5354 66.5198V67.6024L56.7759 67.8429L58.2194 69.1661L60.7455 70.369L61.9484 71.211L62.3092 71.0907V70.2487L61.5875 69.6473L59.1817 68.5647L57.9788 67.8429L57.3774 67.2415ZM53.6484 79.6312H53.889L54.6107 80.4732L56.5353 81.5558L58.2194 82.5181L59.5425 83.6007L59.6628 83.8413V84.563L59.4223 84.6833L58.0991 83.6007L56.8962 82.7587L54.731 81.5558L53.7687 80.7138L53.6484 80.4732V79.6312ZM66.5192 28.1477L66.0381 28.0274L65.9178 28.9897L66.0381 29.11L67.0004 29.5911L68.6844 30.3129L69.8873 31.1549L70.9699 32.2375L71.4511 32.4781L71.5714 31.8766L70.7293 30.794L70.0076 30.1926L68.8047 29.3505L66.5192 28.1477ZM60.0237 52.8068L60.5048 53.0474L61.1063 53.6488L62.1889 54.3706L63.6323 54.972L64.7149 55.6937L65.3164 56.1749L65.4366 56.6561L65.3164 57.1372L64.8352 57.0169L63.512 55.9343L61.828 55.0923L60.6251 54.6112L60.0237 54.13L59.9034 53.288L60.0237 52.8068ZM67.7221 23.0955L67.241 22.9752L67.1207 23.4563L67.241 24.1781L68.3236 24.7795L69.8873 25.3809L71.2105 26.223L72.2931 27.1853L72.7743 27.065L72.654 26.5838L72.0525 25.9824L70.7293 24.8998L69.0453 24.0578L67.7221 23.0955ZM62.9106 40.2968H63.1512L63.8729 41.3794L64.5947 41.8605L66.8801 42.8228L68.083 43.5446L68.8048 44.146V44.7475L68.083 44.5069L66.7598 43.6649L64.5947 42.7025L63.3918 41.8605L62.7903 41.0185L62.9106 40.2968ZM62.0686 47.6343L61.3469 47.1531L61.2266 47.2734L61.4672 47.8748L62.67 48.9574L64.715 50.04L66.6396 51.1226H67.0004L66.8801 50.4009L65.3164 49.6792L63.5121 48.7169L62.0686 47.6343Z" fill="#6F7B87"/>
</svg>
