<svg width="118" height="150" viewBox="0 0 118 150" fill="none" xmlns="http://www.w3.org/2000/svg">
<path d="M28.7987 132.981C28.2313 132.781 27.7312 132.779 27.2281 132.771C26.7812 132.763 26.4673 132.914 26.3283 133.362C25.8313 134.967 25.1774 136.55 26.159 138.224C26.4956 138.798 26.4143 139.483 26.2756 140.118C26.0568 141.12 25.7965 142.113 25.5096 143.292C24.8956 142.431 25.0365 141.623 25.1483 140.908C25.3141 139.848 25.226 138.913 24.8019 137.903C24.2784 136.658 24.3451 135.319 24.8079 134.017C25.3745 132.424 25.1683 132.105 23.4782 131.788C22.8658 131.674 22.1749 131.782 21.5983 131.106C22.6001 130.779 23.5455 130.974 24.4555 131.042C25.2408 131.101 26.0237 131.158 26.8107 131.164C29.1044 131.18 29.3095 131.039 29.9625 128.83C30.3806 127.416 30.6324 125.976 30.5132 124.488C30.3256 122.146 28.9032 120.953 26.5662 121.199C25.073 121.356 23.7859 122.094 22.4316 122.648C22.0612 122.8 21.7187 123.167 21.1627 122.898C21.1619 121.885 22.4519 121.707 22.5697 120.789C22.4781 120.487 22.2149 120.369 21.9467 120.262C19.323 119.213 17.2863 117.338 15.2997 115.429C13.9641 114.147 12.5046 113.422 10.6237 113.397C9.2786 113.379 7.8957 113.378 6.61073 112.83C5.77863 112.475 5.11756 111.956 4.75301 110.943C5.60979 110.992 5.94112 111.663 6.56138 111.847C7.78654 112.21 9.03289 112.406 10.2738 112.239C12.8016 111.9 14.6657 113.055 16.4297 114.639C17.9161 115.975 19.377 117.358 21.1889 118.278C22.6139 119.002 24.0834 119.508 25.7159 119.375C26.1501 119.339 26.563 119.26 26.9588 119.073C28.2868 118.448 28.4081 118.216 28.1747 116.76C27.9992 115.664 27.785 114.572 27.6773 113.47C27.5265 111.927 26.7739 110.832 25.5084 109.966C24.0344 108.957 22.5235 107.986 21.2194 106.746C20.8528 106.397 20.5374 106.027 20.3949 105.517C19.034 100.637 15.5339 97.9163 10.9798 96.3337C8.22012 95.3747 5.36001 95.3941 2.48569 95.7377C1.6709 95.835 0.809255 96.0407 0 95.5747C0.197402 94.725 0.881013 94.7805 1.39052 94.6821C3.42498 94.2892 5.46784 93.9364 7.51384 93.6076C9.02448 93.3649 10.3739 92.8605 11.5625 91.8315C13.2929 90.3335 15.1494 88.9818 16.8927 87.4979C18.6269 86.0219 19.0653 84.1327 17.8537 82.16C16.3991 79.7918 16.0965 77.301 16.349 74.6463C16.3626 74.5039 16.3707 74.3598 16.3998 74.2204C16.4129 74.1576 16.4712 74.1042 16.5182 74.0324C16.9093 73.9576 16.9664 74.2693 17.0717 74.5245C17.4637 75.4749 17.4925 76.4745 17.4808 77.4816C17.4599 79.2844 18.1832 80.7382 19.56 81.8835C20.0625 82.3015 20.5999 82.5075 21.2425 82.2158C23.5235 81.1804 25.7856 80.1 28.0934 79.1283C29.9887 78.3303 30.6635 76.5273 31.7206 75.0289C31.7819 74.9421 31.8087 74.8311 31.8692 74.7437C34.7287 70.6129 33.6616 66.4729 31.8507 62.3609C31.4956 61.5544 30.6851 61.1178 29.8659 60.8036C28.8974 60.4322 27.9034 60.1229 26.9506 59.7159C25.4075 59.0569 24.54 57.9359 24.4532 56.1764C24.3557 54.1999 23.3059 52.6788 21.7876 51.4759C20.4978 50.4539 19.1511 49.5015 17.9994 48.3149C17.7594 48.0677 17.452 47.8547 17.4367 47.457C17.9305 47.124 18.2058 47.526 18.4957 47.7293C19.8718 48.6942 21.2697 49.6349 22.5801 50.6839C23.3198 51.2759 23.8157 51.0941 24.441 50.5691C25.0218 50.0815 25.3392 49.288 26.0981 49.0328C26.4877 49.3125 26.3537 49.5732 26.1898 49.8207C25.8734 50.2981 25.5406 50.7646 25.2231 51.2414C24.6307 52.1311 24.3732 53.055 24.9564 54.0588C25.0098 54.1508 25.062 54.2542 25.0751 54.3573C25.4542 57.3415 27.3657 58.7178 30.1392 59.1896C31.8573 59.482 32.8322 60.5925 33.5764 62.0904C34.4024 63.7529 35.3053 65.3864 36.6963 66.6851C37.3814 67.3247 37.9074 67.4708 38.4515 66.518C39.2612 65.0999 40.44 63.8407 40.5134 62.1077C40.5617 60.9676 40.4275 59.8202 40.3818 58.6757C40.3563 58.0373 40.4425 57.4218 40.8922 56.8468C41.9778 58.8117 42.0077 60.905 41.7974 63.0783C41.5933 65.1869 39.9865 66.9201 40.0437 69.2779C41.164 68.9183 41.6354 68.187 42.1579 67.5394C43.8495 65.4431 44.8403 62.9878 45.6812 60.4676C46.2659 58.7154 46.6225 56.9045 47.7852 55.3544C48.6093 54.2556 48.77 52.8274 48.8131 51.4583C48.898 48.7641 49.7441 46.1763 49.8748 43.4912C49.9418 42.113 49.857 40.7792 49.0504 39.5752C48.5825 38.8769 48.0798 38.5974 47.1726 38.7576C44.4129 39.2452 42.1082 38.2018 39.8097 36.3742C40.6642 36.0605 41.2118 36.25 41.7723 36.4508C42.7468 36.7998 43.6693 37.28 44.6919 37.5121C45.8691 37.7793 46.7681 37.4544 47.5186 36.5075C49.9095 33.4911 51.1208 29.9428 52.1677 26.319C52.6441 24.67 53.0755 23.0079 53.542 21.3559C53.6344 21.0287 53.7098 20.7201 53.4418 20.4546C51.9104 18.9382 51.4795 16.9944 51.4064 14.959C51.3705 13.9609 50.8052 13.5054 50.0602 13.0922C48.84 12.4154 47.6206 11.7368 46.4157 11.0333C46.1014 10.8497 45.6596 10.7183 45.7299 10.1189C46.584 10.0016 47.2903 10.4811 48.0336 10.7302C48.8448 11.002 49.6215 11.3828 50.4006 11.7433C51.6666 12.3291 52.9681 12.4808 54.3684 12.3911C56.3311 12.2655 58.3065 12.3136 60.2762 12.33C61.167 12.3375 61.8398 12.1332 62.3109 11.273C63.1389 9.76108 64.6937 9.03887 66.0434 8.11832C67.9159 6.84118 68.8234 5.11388 68.8016 2.85359C68.7927 1.92113 68.3019 1.18525 67.8185 0.328027C68.8698 -0.0194696 69.8271 -0.220819 70.6721 0.404656C71.4975 1.01557 71.358 2.00113 71.066 2.78447C70.0732 5.44754 70.6482 7.8281 72.0944 10.1342C72.5098 10.7966 72.7722 11.554 73.1188 12.2609C74.0612 14.1828 74.1851 16.3355 74.8419 18.3381C75.1425 19.2547 75.3928 20.1877 75.6896 21.1056C76.2437 22.8193 77.9148 23.6669 79.5938 23.0667C82.6931 21.9587 85.7493 20.7308 88.9128 19.8022C89.9131 19.5086 90.2854 18.5914 90.6114 17.7181C90.8349 17.1197 90.9926 16.4835 91.0812 15.8503C91.421 13.4218 93.3537 12.5566 95.3229 12.0342C95.5013 11.9869 95.6776 12.016 95.8619 12.2461C95.7735 13.0246 95.0151 13.279 94.4975 13.6921C92.6376 15.1763 91.7068 18.8845 92.6559 21.0722C92.9521 21.7548 93.376 22.1088 94.13 22.0388C94.5576 21.9992 95.0028 22.0456 95.4134 21.9447C98.661 21.1471 101.73 21.9014 104.769 22.9713C105.342 23.1732 105.941 23.3131 106.496 23.556C108.311 24.3509 110.086 24.3115 111.905 23.5242C112.818 23.1293 113.789 22.824 114.795 22.722C115.616 22.6389 116.409 22.6959 117.021 23.3183C116.842 23.8328 116.434 23.867 116.12 23.9785C115.21 24.3017 114.224 24.456 113.37 24.8813C109.823 26.6464 106.518 25.2881 103.256 24.0892C100.946 23.2406 98.7359 23.0905 96.3431 23.6759C94.5226 24.1214 92.6286 24.0145 90.9877 22.8336C90.6195 22.5687 90.2216 22.4511 89.774 22.5228C87.1163 22.9484 84.8838 24.191 82.8085 26.0919C84.305 26.9599 85.6958 27.7615 86.9235 28.7956C90.4172 31.7385 92.797 35.4932 94.7646 39.5517C97.0121 44.1877 98.478 49.0866 99.4108 54.1248C100.113 57.9168 100.446 61.7693 100.688 65.6281C100.926 69.4254 100.831 73.2182 100.609 76.9983C100.287 82.4583 99.6532 87.8891 98.5845 93.2684C97.1312 100.584 95.0616 107.709 92.3193 114.642C89.7295 121.19 86.4972 127.396 82.3957 133.128C78.5465 138.508 74.0124 143.185 68.2383 146.534C65.6278 148.048 62.8988 149.289 59.8891 149.792C55.9055 150.458 52.1938 149.457 48.6679 147.752C42.6526 144.844 38.8254 139.815 35.8474 134.044C34.881 132.171 33.936 130.276 33.3659 128.227C33.3216 128.068 33.1839 127.935 33.1017 127.808C32.5729 127.804 32.4911 128.208 32.3487 128.51C31.7985 129.675 31.2129 130.829 30.7562 132.031C30.3945 132.982 29.8515 133.331 28.7987 132.981ZM76.6209 116.819C79.1711 111.877 81.2085 106.719 82.8298 101.412C84.8079 94.9374 86.1573 88.3245 86.8527 81.5745C87.6658 73.6835 87.8794 65.8104 86.7956 57.9258C85.8698 51.1908 84.0776 44.7532 80.3579 38.9871C77.7558 34.9532 74.2726 32.082 69.3954 31.2102C68.1627 30.9898 67.1729 31.1157 66.2831 32.2416C65.1094 33.7268 63.9008 35.1896 62.7501 36.6951C62.3747 37.1862 61.9615 37.6945 61.8669 38.4158C63.0032 38.5818 64.0758 38.6154 65.0934 38.9799C69.6565 40.6142 72.2882 44.1667 74.1818 48.3404C76.4486 53.3365 77.467 58.6361 77.9632 64.1026C78.4688 69.6714 78.2267 75.2059 77.5502 80.6978C76.6885 87.6928 75.1616 94.5739 72.8739 101.272C70.6392 107.815 67.7149 113.992 63.6804 119.629C60.8935 123.522 57.6331 126.85 53.2617 128.998C48.6085 131.283 43.1941 130.389 39.7074 126.551C35.6745 122.112 33.7309 116.701 32.6588 110.914C32.5286 110.212 32.5222 109.483 32.3616 108.789C32.202 108.1 32.2994 107.343 31.8491 106.55C30.8967 110.371 31.1709 114.036 31.8244 117.672C32.3886 120.811 33.4067 123.828 34.6636 126.769C36.595 131.288 39.1678 135.309 43.3384 138.085C45.8753 139.774 48.6252 140.689 51.7607 140.293C57.114 139.617 61.3104 136.809 65.0538 133.196C69.902 128.516 73.3186 122.8 76.6209 116.819ZM54.7227 63.5392C55.4071 59.6155 56.5628 55.7789 56.9359 51.7839C56.6839 51.9754 56.5005 52.1855 56.3584 52.4207C54.9891 54.6866 53.6034 56.9431 52.2679 59.2288C50.3899 62.443 48.6226 65.7192 47.0156 69.0776C46.6139 69.917 46.1132 70.1079 45.3144 69.6706C44.9707 69.4825 44.6103 69.3129 44.2393 69.19C43.7943 69.0426 43.3694 69.1112 43.1233 69.5658C41.8645 71.8915 40.4854 74.1985 40.1933 76.8768C40.0404 78.2786 40.2513 79.7297 40.385 81.1504C40.5245 82.6321 40.4852 84.0733 39.9875 85.4936C38.3319 90.2176 36.6873 94.9456 35.4965 99.816C35.3718 100.326 35.2176 100.819 35.4368 101.349C36.041 101.211 36.3368 100.783 36.7016 100.453C38.3203 98.9899 39.9056 97.4791 41.7928 96.3583C42.9194 95.6892 43.035 95.7708 43.2875 97.0675C44.4051 102.808 46.1523 108.363 48.2656 113.807C48.4391 114.253 48.4738 114.86 49.0851 115.092C49.3019 114.631 49.3209 114.209 49.3149 113.777C49.2082 106.067 50.0616 98.415 50.7264 90.7518C50.7862 90.0622 51.0839 89.5034 51.6602 89.1376C56.187 86.2641 60.5012 83.0361 65.4514 80.8652C65.9134 80.6626 66.5815 80.5499 66.5717 79.8673C66.563 79.2543 65.9368 79.1485 65.5176 78.9172C61.8463 76.8913 57.9403 75.3616 54.1539 73.5785C53.5081 73.2744 53.2267 72.9101 53.3003 72.1799C53.5872 69.3296 54.0676 66.5132 54.7227 63.5392ZM17.722 88.6562C17.4405 88.8769 17.1513 89.0887 16.8786 89.3199C15.3796 90.5912 13.8615 91.8413 12.3963 93.1505C11.3886 94.0511 11.4584 94.5409 12.5019 95.3863C13.5523 96.2372 14.7501 96.5488 16.0216 96.1812C19.1559 95.2751 22.158 95.7839 25.1625 96.7858C26.5494 97.2483 28.0045 97.5021 29.4077 97.9209C30.5119 98.2504 31.2834 97.8254 31.9331 97.0092C32.2896 96.5615 32.5807 96.0745 32.8063 95.5393C33.493 93.9101 33.4895 92.1962 33.4948 90.4773C33.5017 88.2335 33.8589 86.1339 35.1595 84.1698C36.305 82.4401 37.5327 80.6525 37.498 78.3976C37.4873 77.704 37.7119 77.0264 38.0554 76.4566C38.7003 75.3868 38.632 74.2907 38.4452 73.1454C38.2788 72.1245 38.1528 71.0969 38.0166 70.0713C37.9779 69.78 37.9581 69.4796 37.598 69.4095C37.2441 69.3406 36.8662 69.2812 36.5921 69.5867C36.4042 69.7961 36.2682 70.0545 36.1224 70.299C34.4761 73.0612 33.1216 75.9928 31.2152 78.6066C30.56 79.505 29.8243 80.1445 28.7597 80.5428C26.082 81.5445 23.4663 82.6978 21.0103 84.1869C20.458 84.5218 20.0075 84.9062 19.8906 85.5436C19.6494 86.8593 18.9309 87.8299 17.722 88.6562ZM68.7971 26.0198C69.5588 25.3505 70.6763 24.9805 70.858 23.8087C71.2854 21.0528 71.6865 18.2921 71.3453 15.488C71.101 13.4802 70.6458 11.5412 69.509 9.82901C69.247 9.43436 68.9962 8.85048 68.3509 9.16076C66.284 10.1544 64.1632 11.1054 63.029 13.2872C62.7039 13.9125 62.2915 14.1541 61.5916 14.1411C59.6592 14.1053 57.7257 14.1319 55.7926 14.1326C53.125 14.1337 53.1683 14.1275 53.5232 16.8414C53.6507 17.8169 53.9305 18.4698 54.8989 18.8998C55.7326 19.27 56.4754 19.8817 57.1953 20.4644C59.687 22.4815 61.7098 24.9387 63.6019 27.5016C64.0964 28.1714 64.5746 28.3226 65.3241 28.0115C66.5223 27.5142 67.6394 26.8905 68.7971 26.0198ZM57.9127 23.1474C57.3041 22.4341 56.6204 21.8276 55.6642 21.51C55.1641 22.1455 54.9478 22.8701 54.6918 23.5648C53.3934 27.0888 52.3028 30.7041 50.5841 34.0492C49.7207 35.7297 49.7376 37.3102 50.4742 38.8776C51.4032 40.8544 52.1922 42.791 51.6695 45.0423C51.5129 45.7169 51.6253 46.4921 52.3748 46.7927C53.0545 47.0654 53.4928 46.426 53.9112 46.0369C55.3917 44.6598 56.1598 42.8516 56.8962 41.0115C57.4255 39.6892 57.5758 38.1731 58.4966 37.0623C59.3049 36.0874 60.0203 35.0719 60.6042 33.9674C61.2748 32.6988 61.566 31.2817 61.1619 29.9144C60.4625 27.548 59.5835 25.233 57.9127 23.1474ZM28.5465 101.292C27.5566 99.026 25.5893 98.1949 23.3618 97.6665C21.5913 97.2465 19.8366 97.1338 18.0585 97.5183C17.0219 97.7425 16.8938 98.0885 17.4727 98.9916C18.0042 99.8207 18.8326 100.353 19.5108 101.035C20.3801 101.909 21.0988 102.818 21.2219 104.144C21.3275 105.281 21.9359 106.249 22.9064 106.895C24.0642 107.665 25.2953 108.327 26.4378 109.118C27.3637 109.759 28.1106 109.517 28.6526 108.723C30.4015 106.162 30.959 104.742 29.2988 102.392C29.0721 102.072 28.8615 101.739 28.5465 101.292Z" fill="#6F7B87"/>
</svg>
