<svg width="430" height="178" viewBox="0 0 430 178" fill="none" xmlns="http://www.w3.org/2000/svg">
<path d="M173.349 0C256.666 0.00418 339.484 0.00820935 422.301 0.0162354C429.625 0.0169374 429.631 0.0290527 429.631 7.48099C429.636 61.8039 429.639 116.127 429.638 170.45C429.638 177.58 429.625 177.61 422.447 177.611C283.974 177.619 145.5 177.622 7.02684 177.62C0.0298924 177.619 0.00579806 177.596 0.00495906 170.774C-0.00180094 116.118 -0.00141834 61.4615 0.00469966 6.80539C0.00546266 -0.000579834 0.0269475 0.00692697 6.88123 0.00689697C62.2038 0.00662197 117.526 0.003295 173.349 0ZM343.849 173.072C368.673 173.071 393.498 173.073 418.323 173.066C425.188 173.064 425.21 173.052 425.212 166.232C425.224 115.415 425.225 64.5984 425.23 13.7818C425.231 4.28406 425.233 4.28284 415.808 4.28412C283.685 4.30225 151.562 4.32095 19.4392 4.33774C16.4403 4.33813 13.4256 4.50818 10.446 4.26266C6.09378 3.90405 3.85374 5.44388 3.93527 10.0634C4.02043 14.8875 3.77003 19.7164 3.76993 24.5432C3.769 71.5276 3.79558 118.512 3.79857 165.496C3.79904 173.069 3.7632 173.067 11.458 173.067C121.922 173.068 232.385 173.07 343.849 173.072Z" fill="white"/>
<path d="M177.939 30.3766C177.94 16.419 177.94 16.4002 191.494 16.4167C197.154 16.4235 202.804 16.3951 208.467 16.927C218.709 17.889 227.328 21.9473 234.412 29.3939C235.959 31.0196 237.167 33.0776 239.68 34.2822C240.567 29.5689 239.014 25.3898 238.729 21.1718C238.506 17.8895 239.225 16.42 242.52 16.4399C248.851 16.4782 255.182 16.4891 261.514 16.5391C263.977 16.5586 265.395 17.4591 265.762 20.2779C267.973 37.2508 270.355 54.2014 272.7 71.1567C273.946 80.1696 275.233 89.177 277.048 98.1491C280.472 72.7827 283.935 47.4214 287.281 22.0447C287.807 18.0534 289.542 16.3589 293.721 16.3854C314.384 16.517 335.048 16.4892 355.71 16.3779C360.096 16.3543 362.075 17.7692 361.742 22.4886C361.368 27.7948 361.494 33.1536 361.701 38.4778C361.85 42.2769 360.635 44.0083 356.578 43.763C352.096 43.492 347.58 43.8161 343.086 43.6658C339.987 43.5621 338.469 44.5443 338.529 47.9053C338.668 55.5682 338.647 63.2362 338.542 70.9C338.501 73.8612 339.587 75.1445 342.633 75.0614C347.461 74.9296 352.299 75.134 357.128 75.0229C360.22 74.9519 361.752 76.023 361.682 79.3353C361.552 85.4981 361.521 91.6689 361.689 97.8298C361.78 101.185 360.158 102.256 357.169 102.247C352.67 102.233 348.168 102.387 343.673 102.251C340.211 102.147 338.418 103.187 338.522 107.057C338.723 114.55 338.713 122.055 338.543 129.55C338.462 133.146 340.01 134.181 343.348 134.051C348.006 133.869 352.679 134.096 357.343 134.004C360.142 133.95 361.728 134.755 361.665 137.929C361.54 144.259 361.602 150.593 361.636 156.924C361.649 159.409 360.535 160.593 358.023 160.588C343.86 160.561 329.696 160.547 315.532 160.574C312.538 160.58 311.997 158.809 312.014 156.337C312.057 149.838 312.022 143.339 312.019 136.84C312.004 107.678 312.002 78.5166 311.943 49.3549C311.939 47.6321 312.445 45.7949 310.941 43.2031C308.763 56.7976 306.724 69.5169 304.688 82.2366C300.746 106.859 296.724 131.469 292.952 156.117C292.385 159.822 290.753 160.761 287.374 160.682C280.546 160.522 273.697 160.375 266.884 160.736C262.547 160.966 261.037 159.11 260.402 155.197C256.701 132.385 252.868 109.594 249.068 86.7982C248.689 84.5255 248.234 82.2654 247.435 79.882C244.498 89.0251 240.212 97.2424 233.327 103.971C231.837 105.428 232.799 107.413 233.317 109.181C237.575 123.712 241.801 138.252 246.049 152.786C248.334 160.605 248.345 160.611 239.963 160.633C235.631 160.645 231.289 160.449 226.968 160.665C223.37 160.846 221.623 159.585 220.727 155.931C217.674 143.488 214.316 131.118 210.954 118.753C210.404 116.731 210.76 113.515 207.262 113.837C203.706 114.164 204.669 117.18 204.657 119.318C204.588 130.983 204.473 142.651 204.723 154.311C204.823 158.96 203.477 160.837 198.539 160.725C185.88 160.437 173.21 160.509 160.548 160.671C156.367 160.725 153.982 159.794 153.834 154.985C153.702 150.691 152.562 146.437 152.096 142.141C151.823 139.63 150.631 138.626 148.219 138.649C144.387 138.685 140.545 138.805 136.724 138.591C133.204 138.393 132.049 140.192 131.696 143.299C131.191 147.754 130.382 152.175 129.903 156.632C129.594 159.495 128.28 160.663 125.383 160.647C111.386 160.569 97.3877 160.527 83.3913 160.65C79.2635 160.686 78.9339 158.355 78.9433 155.176C78.9999 136.016 78.9714 116.857 78.6111 97.6301C76.9609 107.714 75.3373 117.802 73.6525 127.88C72.0629 137.388 70.2859 146.868 68.8534 156.399C68.3848 159.517 67.0608 160.565 64.0055 160.683C53.5929 161.087 53.6884 161.164 51.9366 150.695C49.0315 133.333 45.995 115.993 42.6861 98.6703C42.6861 117.243 42.5483 135.818 42.7815 154.387C42.8409 159.117 41.5038 161.04 36.6144 160.711C31.4713 160.366 26.2798 160.438 21.1247 160.669C17.1758 160.846 15.9303 159.297 15.9637 155.427C16.1145 137.931 16.0351 120.433 16.0329 102.936C16.0296 76.2741 16.1508 49.6107 15.9033 22.9507C15.8556 17.8158 17.5871 16.1734 22.4766 16.3573C29.6323 16.6264 36.8064 16.5722 43.9687 16.4404C48.4265 16.3585 50.152 18.072 50.7955 22.7068C53.629 43.1156 56.9483 63.457 60.1071 83.8203C60.2325 84.6291 60.5154 85.4134 60.9379 87.0176C64.3912 65.0892 67.8223 43.9718 70.9664 22.8117C71.6539 18.1847 73.3869 16.0978 78.2913 16.3197C85.4424 16.6432 92.624 16.5891 99.7819 16.3608C104.279 16.2174 105.791 17.7731 105.771 22.4181C105.603 61.5759 105.675 100.735 106.043 139.95C108.033 126.61 110.003 113.266 112.019 99.9301C115.967 73.8047 120.033 47.6964 123.804 21.5455C124.358 17.7004 125.921 16.3641 129.525 16.398C138.023 16.4778 146.524 16.5607 155.019 16.3745C158.732 16.2932 160.014 18.1936 160.477 21.3714C163.209 40.1187 165.938 58.8666 168.707 77.6085C171.452 96.187 174.24 114.759 177.029 133.331C177.123 133.956 177.429 134.549 177.939 136.045C177.939 100.361 177.939 65.6177 177.939 30.3766ZM218.96 54.4594C217.359 50.279 214.915 46.8246 210.707 44.8961C206.15 42.807 204.653 43.6852 204.626 48.7094C204.569 59.3647 204.543 70.0216 204.687 80.6754C204.718 82.9986 203.281 86.3508 206.124 87.4221C208.66 88.3775 211.189 86.1281 213.137 84.393C214.838 82.878 216.289 80.9289 217.388 78.9189C221.54 71.3275 221.545 63.3482 218.96 54.4594ZM136.935 103.316C136.616 105.955 136.344 108.602 135.962 111.232C135.698 113.049 135.669 114.852 138.028 114.879C141.449 114.919 144.961 115.655 148.773 114.095C146.696 96.8169 144.626 79.597 142.556 62.3771C142.3 62.3942 142.043 62.4113 141.787 62.4284C140.233 75.7643 138.678 89.1002 136.935 103.316Z" fill="white"/>
<path d="M391.66 96.3627C391.662 107.691 391.759 118.52 391.607 129.346C391.56 132.745 392.597 134.214 396.161 134.045C400.648 133.833 405.155 134.075 409.651 134.013C412.376 133.975 413.607 135.178 413.592 137.895C413.559 144.058 413.554 150.222 413.631 156.385C413.667 159.308 412.431 160.62 409.454 160.606C396.128 160.543 382.8 160.487 369.475 160.602C364.925 160.642 365.006 157.809 365.009 154.621C365.033 126.801 365.011 98.9818 365.008 71.1624C365.006 54.8373 365.146 38.5103 364.926 22.1881C364.868 17.8059 366.343 16.1726 370.635 16.3675C375.457 16.5864 380.304 16.6311 385.123 16.3961C389.911 16.1626 391.821 17.6724 391.765 22.9004C391.504 47.2188 391.656 71.5415 391.66 96.3627Z" fill="white"/>
</svg>
